<svg width="1001" height="1001" viewBox="0 0 1001 1001" fill="none" xmlns="http://www.w3.org/2000/svg">
<path d="M467.733 0.612195C469.596 0.74755 471.647 1.55988 471.811 3.42133C471.884 4.25468 471.788 5.16347 471.794 6.22942C471.805 7.64298 471.805 7.64298 471.817 9.0851C471.821 10.1325 471.824 11.1799 471.827 12.259C471.838 13.914 471.838 13.914 471.85 15.6024C471.873 19.3305 471.889 23.0585 471.905 26.7866C471.92 29.447 471.935 32.1074 471.95 34.7679C472.086 59.068 472.152 83.3686 472.205 107.669C472.212 110.921 472.219 114.174 472.227 117.426C472.229 118.234 472.23 119.043 472.232 119.876C472.263 132.97 472.33 146.064 472.41 159.158C472.492 172.595 472.539 186.032 472.553 199.469C472.561 207.016 472.586 214.562 472.65 222.109C472.71 229.209 472.724 236.308 472.706 243.408C472.706 246.016 472.723 248.624 472.757 251.232C472.801 254.79 472.787 258.343 472.76 261.901C472.786 262.937 472.812 263.973 472.839 265.04C472.711 271.477 472.703 271.86 470.138 274.397C469.795 274.736 469.419 275.043 469.016 275.308C466.87 276.72 464.717 277.929 462.402 279.084C461.37 279.697 460.337 280.309 459.274 280.94C457.9 281.697 457.9 281.697 456.499 282.469C455.459 283.045 454.42 283.621 453.349 284.215C452.271 284.809 451.193 285.402 450.082 286.014C438.378 292.515 426.812 299.202 415.376 306.137C410.712 308.965 410.276 315.547 414.941 318.374C415.502 318.714 416.072 319.049 416.651 319.38C417.729 319.999 418.807 320.618 419.918 321.255C421.063 321.907 422.209 322.559 423.389 323.23C424.584 323.915 425.779 324.6 426.974 325.286C432.614 328.518 438.265 331.731 443.918 334.941C462.226 345.345 466.994 348.055 469.437 349.961C470.958 351.148 471.729 353.037 471.783 354.966C471.802 355.647 471.813 356.328 471.82 357.009C471.84 358.643 471.84 358.643 471.861 360.31C471.87 361.516 471.879 362.722 471.889 363.964C471.902 365.226 471.915 366.488 471.929 367.789C472.044 379.439 472.106 391.091 472.152 402.742C472.186 411.356 472.247 419.969 472.344 428.583C472.41 434.637 472.445 440.691 472.456 446.746C472.464 450.363 472.486 453.979 472.541 457.595C472.603 461.634 472.599 465.671 472.59 469.71C472.618 470.905 472.646 472.101 472.675 473.332C472.59 480.702 472.584 481.228 470.386 483.818C470.026 484.242 469.619 484.627 469.171 484.957C467.326 486.312 465.488 487.445 463.428 488.522C462.575 489.034 461.721 489.546 460.842 490.074C460.065 490.472 459.288 490.871 458.488 491.281C453.37 493.993 448.35 496.839 443.344 499.751C441.649 500.736 439.954 501.721 438.259 502.707C436.906 503.493 436.906 503.493 435.526 504.295C432.431 506.09 429.33 507.876 426.228 509.661C423.977 510.956 421.726 512.251 419.475 513.547C418.354 514.191 417.234 514.836 416.08 515.5C410.459 518.74 404.856 522.005 399.283 525.325C397.719 526.256 397.719 526.256 396.124 527.206C394.148 528.386 392.175 529.57 390.204 530.759C389.329 531.281 388.454 531.804 387.552 532.343C386.787 532.804 386.021 533.265 385.232 533.741L382.323 535.748L378.918 537.693C378.792 537.765 378.849 537.754 378.714 537.807V537.807C377.336 538.359 375.521 537.972 374.845 536.65C373.89 534.782 373.881 533.526 373.925 530.586C373.94 528.986 373.941 528.986 373.957 527.354C373.979 526.185 374 525.015 374.023 523.81C374.038 522.578 374.052 521.345 374.067 520.076C374.099 517.395 374.134 514.715 374.175 512.034C374.237 507.793 374.276 503.552 374.309 499.311C374.321 497.858 374.332 496.405 374.344 494.953C374.353 493.861 374.353 493.861 374.362 492.748C374.443 482.875 374.543 473.002 374.694 463.129C374.795 456.468 374.864 449.808 374.895 443.146C374.913 439.622 374.948 436.1 375.024 432.576C375.1 428.643 375.12 424.713 375.126 420.779C375.162 419.616 375.199 418.453 375.236 417.254C375.261 411.841 375.263 411.287 372.962 407.721C372.388 406.831 371.635 406.062 370.739 405.496C368.843 404.299 366.933 403.268 364.87 402.283C363.937 401.723 363.005 401.163 362.044 400.586C361.26 400.151 360.476 399.716 359.668 399.267C358.758 398.758 357.849 398.249 356.911 397.725C355.959 397.196 355.007 396.668 354.026 396.123C345.298 391.234 336.615 386.278 327.974 381.236C326.96 380.646 325.946 380.056 324.902 379.448C323.455 378.602 323.455 378.602 321.979 377.739C321.064 377.206 320.15 376.673 319.208 376.123C316.353 374.404 313.587 372.57 310.852 370.671C310.419 370.37 309.962 370.101 309.466 369.922C307.525 369.224 306.528 369.602 304.297 370.457C302.274 371.468 300.278 372.536 298.301 373.637C296.536 374.618 296.536 374.618 294.734 375.62C293.815 376.136 293.815 376.136 292.877 376.662C291.056 377.684 289.23 378.698 287.403 379.71C280.278 383.678 273.303 387.837 266.374 392.142C261.738 394.985 257.007 397.645 252.258 400.294C233.915 410.597 215.726 421.168 197.561 431.781C186.726 438.108 175.856 444.372 164.984 450.634C161.565 452.604 158.147 454.577 154.73 456.551C152.462 457.861 150.193 459.171 147.925 460.481C146.268 461.438 146.268 461.438 144.578 462.414C136.612 467.011 128.624 471.565 120.627 476.107C114.437 479.64 108.363 483.324 102.355 487.158V487.158C100.108 488.455 97.9784 490.651 98.0438 493.245C99.5297 552.183 107.831 610.894 133.652 664.595C134.102 665.546 134.552 666.497 135.015 667.477C135.324 668.104 135.633 668.732 135.947 669.371C136.134 669.75 136.294 670.143 136.405 670.551C136.923 672.448 136.947 673.807 136.54 675.462C136.216 676.773 135.442 677.956 134.347 678.747C133.818 679.13 133.274 679.422 132.047 680.081C130.8 680.771 130.8 680.771 129.526 681.475C128.61 681.96 127.694 682.445 126.75 682.945C124.775 684.03 122.8 685.117 120.826 686.205C119.776 686.778 118.726 687.35 117.644 687.94C112.01 691.044 106.455 694.283 100.891 697.51C98.6292 698.817 96.3674 700.123 94.1054 701.428C91.9611 702.668 89.8169 703.907 87.6727 705.146C86.7205 705.696 85.7683 706.247 84.7873 706.814C83.0207 707.835 81.2544 708.857 79.4883 709.879C77.8748 710.812 76.2601 711.744 74.6443 712.673C71.187 714.664 67.755 716.678 64.3765 718.801C63.2767 719.483 62.1769 720.164 61.0439 720.867C60.3278 721.325 59.6118 721.784 58.8826 722.251C58.4662 722.517 58.0253 722.747 57.5656 722.929C56.2186 723.462 55.7968 723.544 54.8282 723.273C54.1374 723.08 53.4852 722.757 52.9199 722.315C51.0478 720.853 50.3761 719.445 49.2654 716.993C48.6081 715.558 48.6081 715.558 47.9375 714.094C47.4771 713.047 47.0167 712 46.5424 710.921C46.0529 709.826 45.5634 708.731 45.059 707.603C15.1668 639.937 -1.02352 566.76 0.40705 492.628C0.419953 491.731 0.432857 490.834 0.446151 489.91C1.98774 398.154 29.5011 306.823 79.4595 229.805C80.1821 228.677 80.9047 227.55 81.6491 226.388C97.1139 202.706 114.797 180.682 134.073 160.016C136.637 157.265 139.141 154.465 141.636 151.651C148.529 143.972 155.785 136.636 163.641 129.939C165.958 127.943 168.197 125.873 170.447 123.803C176.287 118.528 182.47 113.738 188.688 108.923C190.891 107.2 193.051 105.427 195.215 103.655C253.577 57.0781 323.891 25.7064 396.696 10.1007C397.879 9.84573 399.061 9.5908 400.28 9.32815C414.583 6.31197 428.962 4.27375 443.473 2.59324C444.627 2.45843 444.627 2.45843 445.805 2.32091C460.909 0.581471 463.384 0.296383 467.733 0.612195ZM370.709 117.568C369.726 117.952 368.742 118.335 367.729 118.73C366.631 119.154 365.534 119.578 364.403 120.015C363.223 120.481 362.043 120.948 360.827 121.429C359.619 121.902 358.41 122.375 357.165 122.862C353.569 124.277 349.979 125.706 346.39 127.139C345.447 127.513 344.505 127.886 343.534 128.271C303.937 144.04 265.616 168.209 234.372 197.281L228.324 202.598C223.191 206.705 223.448 206.713 220.957 209.216C220.456 209.717 219.955 210.219 219.438 210.736C218.379 211.798 217.322 212.863 216.268 213.931C214.678 215.538 213.081 217.138 211.483 218.736C205.935 224.304 200.56 229.97 195.471 235.965C194.58 236.978 193.688 237.992 192.769 239.037C175.147 259.42 160.273 282.251 147.219 305.777C146.765 306.584 146.312 307.392 145.845 308.223C139.292 319.958 133.749 332.026 128.546 344.405C128.246 345.117 127.946 345.828 127.637 346.562C126.784 348.591 125.941 350.624 125.102 352.659C124.614 353.839 124.127 355.018 123.625 356.234V356.234C122.431 359.07 125.508 361.135 128.266 359.773C129.957 358.938 131.616 358.032 133.295 357.054C134.91 356.117 134.91 356.117 136.558 355.161C138.278 354.156 138.278 354.156 140.032 353.132C141.846 352.078 143.66 351.025 145.475 349.972C146.698 349.262 147.921 348.552 149.144 347.841C154.517 344.72 159.913 341.639 165.314 338.566C172.89 334.248 180.435 329.877 187.964 325.476C206.455 314.669 225.019 303.99 243.624 293.379C252.952 288.057 262.243 282.676 271.513 277.253C282.31 270.939 293.147 264.696 303.985 258.453C307.404 256.482 310.821 254.509 314.239 252.536C316.507 251.226 318.776 249.915 321.044 248.605C322.152 247.965 323.261 247.325 324.402 246.666C330.478 243.16 336.565 239.675 342.666 236.214C350.541 231.739 358.384 227.212 366.153 222.554C366.943 222.089 367.733 221.623 368.547 221.143C369.266 220.708 369.984 220.272 370.725 219.823C371.356 219.444 371.988 219.066 372.639 218.676C374.264 217.558 374.415 217.454 374.955 215.178C375.077 214.664 375.145 214.139 375.159 213.612C375.236 210.802 375.264 208.01 375.253 205.196C375.253 203.784 375.253 203.784 375.253 202.343C375.252 199.226 375.244 196.11 375.236 192.994C375.234 190.834 375.233 188.675 375.232 186.516C375.228 180.83 375.218 175.143 375.207 169.457C375.196 163.656 375.191 157.855 375.186 152.054C375.177 142.123 375.162 132.192 375.144 122.261C375.139 119.542 373.638 116.36 371.124 117.396C370.994 117.45 370.856 117.507 370.709 117.568Z" fill="white"/>
<path d="M530.061 5.81887C530.131 2.85864 533.037 1.15112 535.998 1.14829C565.337 1.12028 596.611 7.10148 624.678 15.0156C625.984 15.3839 627.337 16.0365 627.709 17.3414C628.093 18.6869 627.831 20.1975 627.835 21.8167C627.841 22.9524 627.846 24.0881 627.852 25.2582C627.853 26.5215 627.854 27.7848 627.855 29.0864C627.863 31.0812 627.863 31.0812 627.871 33.1163C627.885 36.8247 627.892 40.533 627.899 44.2413C627.907 48.2339 627.921 52.2264 627.934 56.219C627.957 63.142 627.975 70.0651 627.992 76.9882C628.015 86.9979 628.044 97.0075 628.074 107.017C628.123 123.256 628.167 139.494 628.209 155.732C628.249 171.51 628.292 187.288 628.337 203.067C628.34 204.038 628.343 205.01 628.346 206.012C628.36 210.887 628.374 215.762 628.388 220.637C628.499 259.047 628.604 297.456 628.703 335.865C628.711 338.66 631.703 340.431 634.156 339.093V339.093C635.67 338.268 635.67 338.268 637.214 337.426C651.255 329.756 665.19 321.896 678.949 313.732C683.426 311.077 687.929 308.47 692.436 305.868C697.806 302.767 703.171 299.657 708.522 296.524C719.758 289.945 731.03 283.443 742.374 277.054C755.722 269.532 768.953 261.82 782.14 254.022C783.096 253.457 784.051 252.892 785.035 252.31C789.053 249.934 793.07 247.555 797.079 245.163C798.736 244.18 798.736 244.18 800.428 243.178C801.343 242.631 802.259 242.084 803.203 241.521V241.521C804.945 240.607 806.168 238.316 805.051 236.696C803.298 234.152 801.33 231.838 799.144 229.51C798.624 228.952 798.103 228.393 797.567 227.817C792.458 222.383 787.211 217.085 781.948 211.8C780.729 210.574 780.729 210.574 779.485 209.324C774.57 204.421 769.531 199.738 764.238 195.246C763.337 194.478 762.435 193.71 761.507 192.92C755.354 187.837 749.038 183.068 742.538 178.439C738.942 175.855 737.993 175.172 737.29 174.088C736.707 173.188 736.477 172.108 736.439 171.037C736.406 170.08 736.394 169.122 736.395 168.164C736.393 166.747 736.393 166.747 736.391 165.302C736.394 164.263 736.398 163.224 736.402 162.154C736.402 161.062 736.401 159.97 736.401 158.845C736.402 155.223 736.41 151.601 736.418 147.979C736.42 145.473 736.421 142.967 736.422 140.461C736.426 133.855 736.436 127.249 736.448 120.643C736.458 113.906 736.463 107.169 736.468 100.432C736.478 88.7627 736.493 77.093 736.511 65.4233C736.515 62.6338 738.375 59.2957 740.992 60.2612V60.2612C741.301 60.3752 741.631 60.53 741.917 60.6926C742.485 61.0155 743.056 61.3399 743.641 61.6722C744.461 62.1361 745.281 62.5999 746.126 63.0778C747.021 63.6026 747.916 64.1273 748.838 64.6679C749.777 65.2125 750.717 65.7571 751.684 66.3182C775.784 80.5179 798.312 96.9149 819.884 114.68C821.575 116.065 823.275 117.436 824.983 118.8C829.953 122.79 834.646 126.847 839.035 131.473C840.989 133.402 842.993 135.186 845.071 136.979C849.475 140.804 853.616 144.847 857.728 148.982C858.414 149.664 859.1 150.346 859.807 151.049C863.854 155.104 867.706 159.272 871.447 163.609C873.554 166.038 875.747 168.383 877.94 170.734C882.893 176.161 887.418 181.851 891.908 187.662C894.233 190.665 896.658 193.568 899.115 196.465C905.742 204.524 911.427 213.267 917.21 221.939C917.689 222.65 918.168 223.362 918.661 224.096C924.687 233.065 930.321 242.267 935.789 251.585C936.823 253.344 937.867 255.096 938.911 256.849C939.545 257.941 940.178 259.033 940.831 260.157C941.399 261.127 941.966 262.097 942.552 263.096C943.737 265.717 944.287 268.136 944.646 270.799C944.848 272.296 944.073 273.745 942.752 274.477V274.477C939.434 276.317 936.118 278.163 932.802 280.009C931.672 280.634 930.543 281.259 929.379 281.904C923.982 284.912 918.666 287.976 913.476 291.33C908.948 294.255 904.329 296.892 899.578 299.437C886.365 306.516 873.261 313.865 860.463 321.672C856.364 324.172 852.206 326.516 847.95 328.739C847.14 329.164 846.701 329.393 846.383 329.724C845.497 330.643 846.329 332.155 847.526 332.598V332.598C850.74 333.955 853.622 335.581 856.625 337.357C857.211 337.702 857.798 338.048 858.402 338.404C860.318 339.533 862.231 340.667 864.144 341.801C865.487 342.593 866.83 343.385 868.173 344.176C870.9 345.783 873.626 347.391 876.352 349C881.853 352.245 887.371 355.462 892.891 358.676C894.888 359.841 896.885 361.005 898.882 362.169C900.885 363.336 902.887 364.503 904.89 365.67C928.755 379.579 928.755 379.579 938.256 385.177C958.089 396.868 958.089 396.868 978.043 408.348C979.74 409.313 981.432 410.286 983.124 411.26C984.937 412.293 986.765 413.302 988.61 414.276C989.357 414.689 990.103 415.102 990.872 415.527C991.109 415.651 991.345 415.775 991.583 415.9C992.334 416.293 993.037 416.789 993.549 417.466C997.389 422.545 997.172 431.414 997.866 437.344C998.06 438.929 998.06 438.929 998.257 440.546C998.632 443.648 998.998 446.75 999.342 449.856C999.429 450.531 999.517 451.205 999.607 451.9C1000.63 460.542 1000.56 469.205 1000.58 477.893C1000.58 478.743 1000.58 479.594 1000.59 480.471C1000.6 484.989 1000.61 489.508 1000.62 494.027C1000.62 497.701 1000.63 501.375 1000.66 505.049C1000.79 526.585 1000.41 547.591 997.289 568.948C997.082 570.453 996.875 571.959 996.67 573.464C996.157 577.039 995.589 580.596 994.979 584.155C994.763 585.42 994.548 586.684 994.326 587.987C986.651 631.645 974.64 680.485 951.775 719.439C950.149 722.209 946.917 723.803 943.904 722.69C942.406 722.137 940.965 721.42 939.399 720.468C938.534 719.949 937.67 719.429 936.779 718.894C935.848 718.326 934.916 717.757 933.957 717.171C931.916 715.945 929.875 714.721 927.833 713.498C926.765 712.857 925.697 712.215 924.597 711.555C919.173 708.323 913.7 705.175 908.226 702.028C907.113 701.387 905.999 700.746 904.851 700.085C902.579 698.777 900.307 697.47 898.035 696.163C892.404 692.924 886.776 689.68 881.148 686.436C880.044 685.8 878.941 685.163 877.803 684.508C870.326 680.194 862.868 675.846 855.418 671.485C846.387 666.202 837.305 661.02 828.188 655.886C816.832 649.487 805.561 642.944 794.312 636.358C792.244 635.148 790.176 633.939 788.108 632.729C786.562 631.825 786.562 631.825 784.985 630.902C777.7 626.652 770.372 622.486 763.019 618.356C744.706 608.057 741.149 606.057 738.484 603.694C737.16 602.52 736.303 600.854 736.275 599.084C736.268 598.664 736.27 598.141 736.271 597.384C736.267 595.993 736.267 595.993 736.263 594.574C736.274 593.044 736.274 593.044 736.285 591.484C736.285 590.412 736.285 589.34 736.284 588.236C736.286 584.681 736.302 581.126 736.318 577.57C736.322 575.11 736.325 572.65 736.327 570.19C736.334 563.706 736.355 557.221 736.377 550.737C736.398 544.124 736.408 537.511 736.418 530.898C736.435 520.993 736.459 511.088 736.489 501.182C736.504 496.311 740.969 492.36 745.363 494.464C746.321 494.922 747.297 495.458 748.333 496.092C749.957 497.071 749.957 497.071 751.614 498.071C752.47 498.597 752.47 498.597 753.344 499.133C756.43 501.026 759.535 502.885 762.638 504.75C763.6 505.33 763.6 505.33 764.582 505.922C771.272 509.949 778.046 513.823 784.835 517.679C786.038 518.364 787.24 519.048 788.442 519.733C790.239 520.755 792.035 521.778 793.832 522.801C809.803 531.892 825.69 541.13 841.554 550.406C849.005 554.758 856.491 559.044 863.992 563.307C871.919 567.825 879.768 572.469 887.599 577.149C888.504 577.688 889.408 578.227 890.34 578.781C891.144 579.262 891.947 579.743 892.775 580.238V580.238C894.312 581.278 895.875 579.984 896.194 578.156C898.99 562.142 901.638 546.173 902.836 529.935C902.894 529.186 902.952 528.438 903.012 527.666C903.718 518.304 904.12 508.945 903.895 499.557C903.825 496.32 903.999 493.18 904.28 489.956C904.554 485.439 904.804 481.065 903.338 476.815C903.039 475.947 902.526 475.169 901.855 474.543C897.674 470.636 892.113 468.589 886.886 466.381C883.002 464.653 879.442 462.468 875.823 460.251C874.374 459.389 872.923 458.529 871.471 457.672C870.731 457.235 869.99 456.798 869.227 456.347C865.053 453.908 860.842 451.535 856.637 449.15C847.23 443.809 837.947 438.275 828.701 432.661C822.971 429.194 817.195 425.875 811.301 422.697C805.81 419.709 800.397 416.582 794.973 413.474C793.728 412.761 792.483 412.049 791.238 411.336C782.381 406.264 773.531 401.179 764.687 396.085C763.552 395.432 762.417 394.779 761.248 394.106C760.201 393.502 759.153 392.898 758.074 392.275C757.155 391.745 756.236 391.215 755.289 390.67C754.207 390.03 753.14 389.365 752.083 388.685C750.634 387.753 748.919 387.213 747.242 387.604C743.641 388.445 740.597 390.499 737.352 392.492C735.789 393.432 734.225 394.37 732.66 395.307C731.804 395.821 730.947 396.336 730.065 396.866C724.87 399.956 719.622 402.955 714.381 405.967C705.552 411.049 696.739 416.159 687.945 421.302C679.516 426.23 671.061 431.106 662.573 435.93C657.572 438.777 652.595 441.66 647.636 444.578C646.506 445.243 645.376 445.907 644.212 446.592C642.002 447.892 639.795 449.197 637.59 450.506C636.597 451.091 635.603 451.676 634.579 452.278C633.252 453.064 633.252 453.064 631.899 453.865C631.408 454.122 631.029 454.32 630.712 454.472C629.169 455.216 627.696 456.38 627.7 458.094V458.094C627.721 467.732 627.736 477.371 627.746 487.009C627.751 491.965 627.759 496.92 627.77 501.876C627.781 506.656 627.788 511.435 627.79 516.215C627.792 518.041 627.796 519.868 627.801 521.694C627.809 524.246 627.81 526.797 627.809 529.349C627.813 530.11 627.817 530.87 627.821 531.654C627.82 531.846 627.82 532.031 627.819 532.21C627.81 536.29 623.696 538.214 620.172 536.158C619.233 535.611 618.304 535.012 617.362 534.347C611.768 530.532 605.9 527.295 599.973 524.032C591.915 519.557 583.894 515.041 575.969 510.334C568.019 505.619 560 501.021 551.985 496.417C540.258 489.67 535.726 487.063 533.586 485.666C531.92 484.579 531.125 482.635 531.083 480.646C531.058 479.467 531.048 478.287 531.045 477.107C531.042 476.403 531.039 475.699 531.036 474.973C531.027 472.583 531.026 470.193 531.025 467.803C531.02 466.084 531.015 464.364 531.01 462.645C530.996 457.894 530.988 453.144 530.981 448.394C530.973 443.277 530.959 438.16 530.946 433.043C530.92 422.994 530.901 412.945 530.882 402.896C530.861 391.152 530.834 379.408 530.806 367.665C530.757 346.648 530.713 325.631 530.671 304.614C530.631 284.328 530.589 264.042 530.543 243.756C530.54 242.514 530.537 241.272 530.534 239.993C530.523 234.999 530.512 230.004 530.501 225.01C530.263 119.997 530.263 119.997 530.188 73.4514C530.173 64.2945 530.155 55.1376 530.13 45.9807C530.114 39.9762 530.102 33.9717 530.092 27.9672C530.087 25.6515 530.081 23.3359 530.072 21.0203C530.062 17.9809 530.057 14.9416 530.054 11.9023C530.049 11.0359 530.044 10.1695 530.04 9.27687C530.041 7.78577 530.041 6.67925 530.061 5.81887Z" fill="white"/>
<path d="M503.875 535.922C504.288 536.032 504.689 536.188 505.075 536.371C506.922 537.252 507.122 537.367 509.403 538.682C510.342 539.217 511.28 539.753 512.246 540.305C513.246 540.885 514.245 541.465 515.275 542.063C516.318 542.66 517.361 543.258 518.435 543.874C520.601 545.117 522.766 546.362 524.929 547.61C527.894 549.319 530.867 551.015 533.843 552.706C542.653 557.713 551.429 562.774 560.152 567.931C567.891 572.499 575.683 576.975 583.471 581.459C591.107 585.858 598.721 590.291 606.326 594.743C615.189 599.927 624.102 605.016 633.05 610.053C650.173 619.702 667.154 629.598 684.123 639.513C694.955 645.837 705.822 652.1 716.691 658.361C757.813 682.052 757.813 682.052 772.391 690.579C781.912 696.147 791.432 701.706 801.065 707.078C807.057 710.431 812.982 713.895 818.908 717.364C827.989 722.679 837.101 727.937 846.242 733.149C858.988 740.416 871.705 747.732 884.406 755.076C887.283 756.737 890.163 758.393 893.043 760.046C900.023 764.059 906.952 768.102 913.744 772.405C916.478 774.138 918.027 777.486 916.506 780.343C915.975 781.341 915.332 782.319 914.551 783.387C914.005 784.139 913.459 784.891 912.896 785.666C912.308 786.461 911.72 787.256 911.114 788.075C910.51 788.899 909.906 789.724 909.284 790.574C907.486 793.02 905.678 795.458 903.863 797.892C903.384 798.536 902.904 799.18 902.41 799.844C896.877 807.24 891.046 814.353 885.039 821.365C882.462 824.379 879.974 827.46 877.491 830.553C874.129 834.689 870.587 838.474 866.763 842.183C864.945 843.997 863.247 845.895 861.587 847.834C859.77 849.957 856.969 851.125 854.314 850.254C852.194 849.559 850.235 848.604 848.055 847.368C846.478 846.48 846.478 846.48 844.869 845.574C843.755 844.936 842.642 844.299 841.494 843.642C840.337 842.987 839.181 842.332 837.989 841.657C831.024 837.701 824.091 833.694 817.203 829.607C810.681 825.739 804.113 821.952 797.54 818.169C788.753 813.109 779.983 808.02 771.232 802.897C762.325 797.686 753.365 792.577 744.371 787.519C736.184 782.906 728.064 778.181 719.955 773.433C712.202 768.896 704.425 764.405 696.605 759.985C692.831 757.849 689.085 755.701 685.431 753.365C684.355 752.686 683.279 752.007 682.17 751.308C681.544 750.894 680.917 750.48 680.281 750.06C679.77 749.722 679.223 749.432 678.634 749.259C675.622 748.379 673.97 749.248 670.813 750.666C668.666 751.788 666.55 752.971 664.46 754.195C663.845 754.553 663.231 754.911 662.597 755.279C661.252 756.062 659.909 756.847 658.567 757.635C656.393 758.906 654.214 760.168 652.032 761.426C645.083 765.435 638.144 769.462 631.218 773.513C619.544 780.341 607.838 787.109 596.087 793.803C587.705 798.579 579.356 803.406 571.035 808.287C562.537 813.271 553.977 818.128 545.368 822.917C537.943 827.048 530.628 831.255 523.436 835.778C517.653 839.351 511.675 842.602 505.75 845.929C498.253 850.146 490.807 854.441 483.384 858.786C474.707 863.864 466.011 868.9 457.269 873.865C448.559 878.812 439.892 883.819 431.278 888.931C430.578 889.345 429.877 889.76 429.156 890.187C428.538 890.554 427.919 890.921 427.283 891.299V891.299C425.051 892.567 425.208 895.857 427.651 896.643C463.012 908.028 511.049 904.866 546.588 900.558C547.833 900.408 549.078 900.259 550.361 900.105C569.087 897.767 587.231 894.081 605.465 889.21C606.597 888.911 606.597 888.911 607.751 888.605C609.794 888.062 611.833 887.507 613.872 886.951C620.066 885.615 623.691 885.788 629.161 889.048C630.218 889.669 631.276 890.289 632.365 890.929C633.492 891.608 634.618 892.287 635.778 892.986C636.971 893.692 638.165 894.396 639.359 895.1C641.813 896.546 644.263 898 646.709 899.46C651.983 902.603 657.293 905.684 662.6 908.771C664.63 909.956 666.661 911.142 668.691 912.328C685.794 922.304 702.968 932.151 720.211 941.88C723.206 943.569 725.653 947.704 722.867 949.72C722.748 949.806 722.622 949.895 722.486 949.99C722.141 950.231 721.775 950.442 721.395 950.623C717.556 952.454 713.705 954.249 709.826 955.997C708.868 956.437 707.91 956.877 706.924 957.33C664.24 976.821 618.667 989.283 572.318 996.293C571.3 996.448 570.283 996.603 569.234 996.763C565.796 997.255 562.356 997.683 558.907 998.09C558.176 998.179 557.445 998.269 556.691 998.361C539.649 1000.39 522.626 1000.5 505.492 1000.47C502.357 1000.46 499.222 1000.47 496.087 1000.49C475.735 1000.61 455.914 999.821 435.709 997.063C434.903 996.956 434.096 996.848 433.266 996.738C428.995 996.159 424.747 995.489 420.502 994.753C419.246 994.539 417.991 994.324 416.698 994.103C373.979 986.583 332.43 974.168 293.004 955.997C291.971 955.523 290.938 955.05 289.873 954.562C255.378 938.653 223.25 918.921 193.418 895.424C192.561 894.755 191.703 894.085 190.82 893.395C173.769 879.943 157.976 865.184 142.599 849.867C141.74 849.012 140.881 848.158 139.996 847.278C135.005 842.274 130.246 837.147 125.659 831.772C124.66 830.624 123.66 829.477 122.659 828.331C111.061 814.943 100.314 801.021 90.1116 786.539C89.2139 785.272 88.2995 784.016 87.3635 782.777C86.2132 781.205 85.3193 779.967 84.8631 778.391C84.4517 776.971 84.8606 775.425 85.8486 774.325C87.1469 772.88 88.6787 772.052 90.6886 770.878C91.2577 770.542 91.8268 770.205 92.4131 769.859C94.589 768.58 96.7775 767.323 98.966 766.066C100.989 764.891 103.011 763.716 105.034 762.541C113.858 757.424 122.706 752.348 131.566 747.293C132.48 746.772 133.394 746.25 134.336 745.713C136.104 744.705 137.874 743.699 139.645 742.696C143.89 740.283 148.095 737.828 152.252 735.266C153.049 734.78 153.846 734.293 154.668 733.792C156.158 732.878 157.64 731.952 159.114 731.012C161.288 729.684 163.092 728.672 165.336 728.198C166.687 727.913 168.108 728.202 169.225 729.015C171.517 730.682 172.909 732.925 174.554 735.459C175.454 736.78 176.358 738.099 177.265 739.417C177.727 740.094 178.19 740.77 178.666 741.468C188.195 755.106 199.239 768.338 211.337 779.749L213.951 782.492L214.978 783.519C215.529 784.218 216.079 784.916 216.646 785.636C219.145 788.726 221.771 791.079 224.783 793.645C227.213 795.765 229.564 797.954 231.91 800.166C239.263 807.079 246.96 813.38 255.018 819.452C255.64 819.922 256.262 820.392 256.903 820.876C265.069 827.015 273.361 832.966 281.963 838.481C284.64 840.2 287.178 842.026 289.703 843.959C292.892 846.3 295.77 848.131 299.288 849.543C300.539 850.045 301.921 850.154 303.22 849.795C307.086 848.726 310.175 846.753 313.59 844.404C316.487 842.465 319.517 840.787 322.552 839.074C325.069 837.649 327.566 836.193 330.06 834.727C334.87 831.901 339.698 829.107 344.529 826.318C351.855 822.08 359.166 817.817 366.474 813.549C384.03 803.297 401.644 793.145 419.302 783.07C434.566 774.355 449.805 765.598 464.938 756.658C474.864 750.804 484.863 745.078 494.849 739.327C501.571 735.456 508.289 731.578 515.007 727.7C520.618 724.462 526.23 721.227 531.845 717.998C537.391 714.807 542.93 711.608 548.466 708.402C550.665 707.13 552.865 705.863 555.068 704.598C558.256 702.766 561.438 700.923 564.618 699.077C565.584 698.525 566.55 697.974 567.545 697.406C568.423 696.893 569.3 696.38 570.205 695.852C570.976 695.407 571.747 694.962 572.541 694.504V694.504C575.311 692.766 573.418 688.967 570.598 687.311C554.485 677.851 538.342 668.445 522.146 659.128C518.855 657.233 515.567 655.334 512.279 653.435C500.04 646.363 487.784 639.323 475.508 632.318C467.294 627.63 459.093 622.921 450.917 618.169C446.795 615.775 442.663 613.402 438.516 611.053C429.293 605.826 420.187 600.471 411.205 594.863C408.097 592.922 406.401 588.56 409.545 586.677C410.114 586.337 410.783 585.972 411.586 585.515C412.568 584.95 413.55 584.385 414.562 583.803C415.633 583.2 416.703 582.596 417.807 581.974C420.065 580.68 422.322 579.386 424.58 578.092C426.325 577.097 426.325 577.097 428.106 576.083C432.525 573.553 436.919 570.981 441.312 568.405C449.73 563.47 458.17 558.583 466.691 553.827C473.768 549.871 480.774 545.794 487.783 541.722C488.899 541.081 488.899 541.081 490.038 540.428C491.43 539.612 492.807 538.768 494.163 537.894C497.976 535.494 499.812 534.839 503.875 535.922Z" fill="white"/>
</svg>
