<svg width="1002" height="1001" viewBox="0 0 1002 1001" fill="none" xmlns="http://www.w3.org/2000/svg">
<path d="M468.093 0.612195C469.957 0.74755 472.008 1.55988 472.172 3.42133C472.245 4.25468 472.149 5.16347 472.155 6.22942C472.166 7.64298 472.166 7.64298 472.178 9.0851C472.181 10.1325 472.185 11.1799 472.188 12.259C472.199 13.914 472.199 13.914 472.211 15.6024C472.234 19.3305 472.25 23.0585 472.266 26.7866C472.281 29.447 472.296 32.1074 472.311 34.7679C472.447 59.068 472.513 83.3686 472.566 107.669C472.573 110.921 472.58 114.174 472.588 117.426C472.589 118.234 472.591 119.043 472.593 119.876C472.624 132.97 472.69 146.064 472.771 159.158C472.853 172.595 472.9 186.032 472.914 199.469C472.922 207.016 472.947 214.562 473.011 222.109C473.071 229.209 473.085 236.308 473.066 243.408C473.067 246.016 473.084 248.624 473.118 251.232C473.161 254.79 473.148 258.343 473.121 261.901C473.147 262.937 473.173 263.973 473.2 265.04C473.072 271.477 473.064 271.86 470.499 274.397C470.156 274.736 469.78 275.043 469.377 275.308C467.231 276.72 465.078 277.929 462.763 279.084C461.73 279.697 460.698 280.309 459.635 280.94C458.261 281.697 458.261 281.697 456.859 282.469C455.82 283.045 454.781 283.621 453.71 284.215C452.632 284.809 451.554 285.402 450.443 286.014C438.739 292.515 427.173 299.202 415.737 306.137C411.073 308.965 410.637 315.547 415.302 318.374C415.863 318.714 416.433 319.049 417.012 319.38C418.09 319.999 419.168 320.618 420.279 321.255C421.424 321.907 422.57 322.559 423.75 323.23C424.945 323.915 426.14 324.6 427.335 325.286C432.975 328.518 438.626 331.731 444.279 334.941C462.587 345.345 467.355 348.055 469.798 349.961C471.319 351.148 472.09 353.037 472.144 354.966C472.163 355.647 472.174 356.328 472.181 357.009C472.201 358.643 472.201 358.643 472.221 360.31C472.231 361.516 472.24 362.722 472.249 363.964C472.263 365.226 472.276 366.488 472.29 367.789C472.405 379.439 472.467 391.091 472.512 402.742C472.546 411.356 472.608 419.969 472.705 428.583C472.771 434.637 472.806 440.691 472.817 446.746C472.825 450.363 472.847 453.979 472.902 457.595C472.964 461.634 472.96 465.671 472.951 469.71C472.979 470.905 473.007 472.101 473.036 473.332C472.951 480.702 472.944 481.228 470.747 483.818C470.387 484.242 469.98 484.627 469.531 484.957C467.686 486.312 465.848 487.445 463.789 488.522C462.936 489.034 462.082 489.546 461.203 490.074C460.426 490.472 459.649 490.871 458.848 491.281C453.731 493.993 448.711 496.839 443.705 499.751C442.01 500.736 440.315 501.721 438.62 502.707C437.267 503.493 437.267 503.493 435.887 504.295C432.791 506.09 429.691 507.876 426.589 509.661C424.338 510.956 422.087 512.251 419.836 513.547C418.715 514.191 417.595 514.836 416.441 515.5C410.82 518.74 405.217 522.005 399.643 525.325C398.08 526.256 398.08 526.256 396.484 527.206C394.509 528.386 392.535 529.57 390.565 530.759C389.69 531.281 388.815 531.804 387.913 532.343C387.147 532.804 386.382 533.265 385.593 533.741L382.683 535.748L379.279 537.693C379.153 537.765 379.209 537.754 379.075 537.807V537.807C377.697 538.359 375.882 537.972 375.206 536.65C374.25 534.782 374.242 533.526 374.286 530.586C374.301 528.986 374.301 528.986 374.317 527.354C374.339 526.185 374.361 525.015 374.384 523.81C374.398 522.578 374.413 521.345 374.428 520.076C374.46 517.395 374.495 514.715 374.536 512.034C374.598 507.793 374.636 503.552 374.67 499.311C374.682 497.858 374.693 496.405 374.705 494.953C374.714 493.861 374.714 493.861 374.723 492.748C374.804 482.875 374.904 473.002 375.055 463.129C375.156 456.468 375.225 449.808 375.256 443.146C375.274 439.622 375.309 436.1 375.384 432.576C375.461 428.643 375.48 424.713 375.487 420.779C375.523 419.616 375.56 418.453 375.597 417.254C375.621 411.841 375.624 411.287 373.323 407.721C372.748 406.831 371.996 406.062 371.1 405.496C369.204 404.299 367.294 403.268 365.23 402.283C364.298 401.723 363.366 401.163 362.405 400.586C361.621 400.151 360.837 399.716 360.029 399.267C359.119 398.758 358.209 398.249 357.272 397.725C356.32 397.196 355.367 396.668 354.386 396.123C345.659 391.234 336.975 386.278 328.335 381.236C327.321 380.646 326.307 380.056 325.263 379.448C323.816 378.602 323.816 378.602 322.339 377.739C321.425 377.206 320.511 376.673 319.569 376.123C316.714 374.404 313.948 372.57 311.212 370.671C310.78 370.37 310.323 370.101 309.827 369.922C307.886 369.224 306.889 369.602 304.658 370.457C302.634 371.468 300.639 372.536 298.662 373.637C296.896 374.618 296.896 374.618 295.095 375.62C294.176 376.136 294.176 376.136 293.238 376.662C291.417 377.684 289.591 378.698 287.764 379.71C280.639 383.678 273.664 387.837 266.735 392.142C262.099 394.985 257.368 397.645 252.619 400.294C234.276 410.597 216.087 421.168 197.921 431.781C187.087 438.108 176.217 444.372 165.345 450.634C161.926 452.604 158.508 454.577 155.091 456.551C152.822 457.861 150.554 459.171 148.285 460.481C146.629 461.438 146.629 461.438 144.938 462.414C136.973 467.011 128.984 471.565 120.988 476.107C114.798 479.64 108.724 483.324 102.716 487.158V487.158C100.469 488.455 98.3393 490.651 98.4046 493.245C99.8906 552.183 108.192 610.894 134.013 664.595C134.463 665.546 134.913 666.497 135.376 667.477C135.685 668.104 135.994 668.732 136.308 669.371C136.495 669.75 136.655 670.143 136.766 670.551C137.284 672.448 137.308 673.807 136.9 675.462C136.577 676.773 135.803 677.956 134.708 678.747C134.179 679.13 133.634 679.422 132.408 680.081C131.16 680.771 131.16 680.771 129.887 681.475C128.971 681.96 128.055 682.445 127.111 682.945C125.135 684.03 123.161 685.117 121.187 686.205C120.137 686.778 119.087 687.35 118.005 687.94C112.371 691.044 106.816 694.283 101.252 697.51C98.9901 698.817 96.7282 700.123 94.4662 701.428C92.3219 702.668 90.1777 703.907 88.0336 705.146C87.0814 705.696 86.1292 706.247 85.1481 706.814C83.3815 707.835 81.6152 708.857 79.8491 709.879C78.2356 710.812 76.621 711.744 75.0051 712.673C71.5478 714.664 68.1158 716.678 64.7373 718.801C63.6376 719.483 62.5378 720.164 61.4047 720.867C60.6887 721.325 59.9726 721.784 59.2435 722.251C58.827 722.517 58.3862 722.747 57.9264 722.929C56.5794 723.462 56.1577 723.544 55.189 723.273C54.4982 723.08 53.846 722.757 53.2807 722.315C51.4087 720.853 50.737 719.445 49.6262 716.993C48.9689 715.558 48.9689 715.558 48.2983 714.094C47.8379 713.047 47.3775 712 46.9032 710.921C46.4137 709.826 45.9242 708.731 45.4199 707.603C15.5277 639.937 -0.662683 566.76 0.76789 492.628C0.780793 491.731 0.793696 490.834 0.806991 489.91C2.34858 398.154 29.8619 306.823 79.8203 229.805C80.5429 228.677 81.2655 227.55 82.01 226.388C97.4747 202.706 115.158 180.682 134.434 160.016C136.998 157.265 139.502 154.465 141.997 151.651C148.89 143.972 156.146 136.636 164.002 129.939C166.318 127.943 168.558 125.873 170.808 123.803C176.648 118.528 182.831 113.738 189.049 108.923C191.252 107.2 193.412 105.427 195.576 103.655C253.938 57.0781 324.252 25.7064 397.057 10.1007C398.239 9.84573 399.422 9.5908 400.64 9.32815C414.944 6.31197 429.323 4.27375 443.834 2.59324C444.988 2.45843 444.988 2.45843 446.166 2.32091C461.269 0.581471 463.745 0.296383 468.093 0.612195ZM371.07 117.568C370.086 117.952 369.103 118.335 368.09 118.73C366.992 119.154 365.894 119.578 364.763 120.015C363.584 120.481 362.404 120.948 361.188 121.429C359.98 121.902 358.771 122.375 357.526 122.862C353.93 124.277 350.339 125.706 346.751 127.139C345.808 127.513 344.866 127.886 343.895 128.271C304.298 144.04 265.977 168.209 234.733 197.281L228.685 202.598C223.552 206.705 223.809 206.713 221.318 209.216C220.817 209.717 220.316 210.219 219.799 210.736C218.74 211.798 217.683 212.863 216.628 213.931C215.039 215.538 213.442 217.138 211.844 218.736C206.295 224.304 200.921 229.97 195.832 235.965C194.94 236.978 194.048 237.992 193.129 239.037C175.508 259.42 160.634 282.251 147.58 305.777C147.126 306.584 146.673 307.392 146.205 308.223C139.652 319.958 134.109 332.026 128.907 344.405C128.607 345.117 128.307 345.828 127.997 346.562C127.145 348.591 126.302 350.624 125.462 352.659C124.975 353.839 124.488 355.018 123.986 356.234V356.234C122.792 359.07 125.868 361.135 128.627 359.773C130.317 358.938 131.976 358.032 133.656 357.054C135.271 356.117 135.271 356.117 136.918 355.161C138.638 354.156 138.638 354.156 140.393 353.132C142.207 352.078 144.021 351.025 145.836 349.972C147.059 349.262 148.282 348.552 149.505 347.841C154.878 344.72 160.273 341.639 165.674 338.566C173.251 334.248 180.796 329.877 188.325 325.476C206.816 314.669 225.38 303.99 243.985 293.379C253.313 288.057 262.604 282.676 271.874 277.253C282.671 270.939 293.508 264.696 304.345 258.453C307.765 256.482 311.182 254.509 314.599 252.536C316.868 251.226 319.137 249.915 321.405 248.605C322.513 247.965 323.621 247.325 324.763 246.666C330.839 243.16 336.926 239.675 343.027 236.214C350.902 231.739 358.745 227.212 366.514 222.554C367.304 222.089 368.094 221.623 368.908 221.143C369.627 220.708 370.345 220.272 371.086 219.823C371.717 219.444 372.349 219.066 372.999 218.676C374.624 217.558 374.776 217.454 375.316 215.178C375.438 214.664 375.505 214.139 375.52 213.612C375.597 210.802 375.625 208.01 375.614 205.196C375.614 203.784 375.614 203.784 375.614 202.343C375.613 199.226 375.605 196.11 375.597 192.994C375.595 190.834 375.594 188.675 375.593 186.516C375.589 180.83 375.579 175.143 375.567 169.457C375.557 163.656 375.552 157.855 375.547 152.054C375.537 142.123 375.523 132.192 375.505 122.261C375.5 119.542 373.998 116.36 371.485 117.396C371.355 117.45 371.217 117.507 371.07 117.568Z" fill="#E27D01"/>
<path d="M530.422 5.81887C530.492 2.85864 533.398 1.15112 536.359 1.14829C565.697 1.12028 596.972 7.10148 625.039 15.0156C626.345 15.3839 627.698 16.0365 628.07 17.3414C628.454 18.6869 628.192 20.1975 628.196 21.8167C628.202 22.9524 628.207 24.0881 628.213 25.2582C628.214 26.5215 628.215 27.7848 628.216 29.0864C628.224 31.0812 628.224 31.0812 628.232 33.1163C628.246 36.8247 628.253 40.533 628.26 44.2413C628.268 48.2339 628.282 52.2264 628.295 56.219C628.318 63.142 628.336 70.0651 628.352 76.9882C628.376 86.9979 628.405 97.0075 628.435 107.017C628.484 123.256 628.528 139.494 628.57 155.732C628.61 171.51 628.653 187.288 628.698 203.067C628.701 204.038 628.704 205.01 628.707 206.012C628.721 210.887 628.735 215.762 628.749 220.637C628.86 259.047 628.964 297.456 629.064 335.865C629.072 338.66 632.063 340.431 634.517 339.093V339.093C636.031 338.268 636.031 338.268 637.575 337.426C651.616 329.756 665.551 321.896 679.31 313.732C683.786 311.077 688.29 308.47 692.797 305.868C698.167 302.767 703.532 299.657 708.883 296.524C720.119 289.945 731.391 283.443 742.735 277.054C756.083 269.532 769.314 261.82 782.501 254.022C783.456 253.457 784.412 252.892 785.396 252.31C789.414 249.934 793.431 247.555 797.44 245.163C799.097 244.18 799.097 244.18 800.788 243.178C801.704 242.631 802.62 242.084 803.564 241.521V241.521C805.306 240.607 806.529 238.316 805.412 236.696C803.659 234.152 801.691 231.838 799.505 229.51C798.985 228.952 798.464 228.393 797.928 227.817C792.819 222.383 787.572 217.085 782.309 211.8C781.09 210.574 781.09 210.574 779.846 209.324C774.93 204.421 769.892 199.738 764.599 195.246C763.698 194.478 762.796 193.71 761.868 192.92C755.715 187.837 749.399 183.068 742.898 178.439C739.303 175.855 738.354 175.172 737.651 174.088C737.068 173.188 736.838 172.108 736.8 171.037C736.767 170.08 736.755 169.122 736.756 168.164C736.754 166.747 736.754 166.747 736.751 165.302C736.755 164.263 736.759 163.224 736.763 162.154C736.762 161.062 736.762 159.97 736.762 158.845C736.763 155.223 736.771 151.601 736.779 147.979C736.781 145.473 736.782 142.967 736.783 140.461C736.787 133.855 736.797 127.249 736.809 120.643C736.819 113.906 736.824 107.169 736.829 100.432C736.839 88.7627 736.853 77.093 736.872 65.4233C736.876 62.6338 738.736 59.2957 741.353 60.2612V60.2612C741.662 60.3752 741.992 60.53 742.278 60.6926C742.846 61.0155 743.417 61.3399 744.002 61.6722C744.822 62.1361 745.642 62.5999 746.487 63.0778C747.382 63.6026 748.277 64.1273 749.199 64.6679C750.138 65.2125 751.077 65.7571 752.045 66.3182C776.145 80.5179 798.673 96.9149 820.245 114.68C821.936 116.065 823.636 117.436 825.344 118.8C830.314 122.79 835.007 126.847 839.396 131.473C841.35 133.402 843.354 135.186 845.432 136.979C849.836 140.804 853.977 144.847 858.089 148.982C858.775 149.664 859.461 150.346 860.168 151.049C864.215 155.104 868.066 159.272 871.808 163.609C873.915 166.038 876.108 168.383 878.301 170.734C883.254 176.161 887.778 181.851 892.269 187.662C894.594 190.665 897.019 193.568 899.476 196.465C906.103 204.524 911.788 213.267 917.57 221.939C918.049 222.65 918.529 223.362 919.022 224.096C925.047 233.065 930.682 242.267 936.15 251.585C937.184 253.344 938.228 255.096 939.272 256.849C939.905 257.941 940.539 259.033 941.191 260.157C941.759 261.127 942.327 262.097 942.912 263.096C944.097 265.717 944.648 268.136 945.007 270.799C945.209 272.296 944.434 273.745 943.113 274.477V274.477C939.794 276.317 936.479 278.163 933.163 280.009C932.033 280.634 930.904 281.259 929.74 281.904C924.343 284.912 919.027 287.976 913.837 291.33C909.309 294.255 904.689 296.892 899.939 299.437C886.726 306.516 873.622 313.865 860.824 321.672C856.725 324.172 852.567 326.516 848.311 328.739C847.5 329.164 847.062 329.393 846.744 329.724C845.858 330.643 846.69 332.155 847.887 332.598V332.598C851.101 333.955 853.983 335.581 856.986 337.357C857.572 337.702 858.159 338.048 858.763 338.404C860.679 339.533 862.592 340.667 864.505 341.801C865.848 342.593 867.191 343.385 868.534 344.176C871.261 345.783 873.987 347.391 876.713 349C882.214 352.245 887.732 355.462 893.252 358.676C895.249 359.841 897.246 361.005 899.243 362.169C901.245 363.336 903.248 364.503 905.251 365.67C929.116 379.579 929.116 379.579 938.617 385.177C958.449 396.868 958.449 396.868 978.404 408.348C980.101 409.313 981.793 410.286 983.485 411.26C985.298 412.293 987.125 413.302 988.971 414.276C989.717 414.689 990.464 415.102 991.233 415.527C991.469 415.651 991.706 415.775 991.944 415.9C992.695 416.293 993.398 416.789 993.91 417.466C997.75 422.545 997.533 431.414 998.227 437.344C998.421 438.929 998.421 438.929 998.618 440.546C998.993 443.648 999.359 446.75 999.703 449.856C999.79 450.531 999.878 451.205 999.968 451.9C1000.99 460.542 1000.92 469.205 1000.94 477.893C1000.94 478.743 1000.94 479.594 1000.95 480.471C1000.96 484.989 1000.97 489.508 1000.98 494.027C1000.98 497.701 1000.99 501.375 1001.02 505.049C1001.15 526.585 1000.77 547.591 997.649 568.948C997.443 570.453 997.236 571.959 997.031 573.464C996.517 577.039 995.95 580.596 995.339 584.155C995.124 585.42 994.909 586.684 994.687 587.987C987.012 631.645 975.001 680.485 952.136 719.439C950.51 722.209 947.278 723.803 944.264 722.69C942.767 722.137 941.326 721.42 939.76 720.468C938.895 719.949 938.031 719.429 937.14 718.894C936.209 718.326 935.277 717.757 934.318 717.171C932.277 715.945 930.236 714.721 928.194 713.498C927.126 712.857 926.058 712.215 924.958 711.555C919.534 708.323 914.061 705.175 908.587 702.028C907.473 701.387 906.36 700.746 905.212 700.085C902.94 698.777 900.668 697.47 898.396 696.163C892.765 692.924 887.137 689.68 881.509 686.436C880.405 685.8 879.302 685.163 878.164 684.508C870.687 680.194 863.229 675.846 855.779 671.485C846.748 666.202 837.665 661.02 828.549 655.886C817.192 649.487 805.922 642.944 794.673 636.358C792.605 635.148 790.537 633.939 788.469 632.729C786.923 631.825 786.923 631.825 785.345 630.902C778.061 626.652 770.732 622.486 763.38 618.356C745.067 608.057 741.51 606.057 738.845 603.694C737.521 602.52 736.664 600.854 736.636 599.084C736.629 598.664 736.63 598.141 736.632 597.384C736.628 595.993 736.628 595.993 736.624 594.574C736.635 593.044 736.635 593.044 736.646 591.484C736.646 590.412 736.645 589.34 736.645 588.236C736.647 584.681 736.663 581.126 736.679 577.57C736.682 575.11 736.685 572.65 736.687 570.19C736.695 563.706 736.715 557.221 736.738 550.737C736.759 544.124 736.769 537.511 736.779 530.898C736.796 520.993 736.82 511.088 736.85 501.182C736.864 496.311 741.33 492.36 745.724 494.464C746.682 494.922 747.658 495.458 748.694 496.092C750.318 497.071 750.318 497.071 751.974 498.071C752.831 498.597 752.831 498.597 753.705 499.133C756.791 501.026 759.896 502.885 762.999 504.75C763.961 505.33 763.961 505.33 764.943 505.922C771.633 509.949 778.407 513.823 785.196 517.679C786.398 518.364 787.601 519.048 788.803 519.733C790.599 520.755 792.396 521.778 794.193 522.801C810.164 531.892 826.051 541.13 841.915 550.406C849.366 554.758 856.852 559.044 864.353 563.307C872.279 567.825 880.129 572.469 887.96 577.149C888.865 577.688 889.769 578.227 890.701 578.781C891.505 579.262 892.308 579.743 893.136 580.238V580.238C894.673 581.278 896.236 579.984 896.555 578.156C899.351 562.142 901.999 546.173 903.197 529.935C903.255 529.186 903.313 528.438 903.373 527.666C904.079 518.304 904.481 508.945 904.256 499.557C904.186 496.32 904.36 493.18 904.641 489.956C904.915 485.439 905.165 481.065 903.699 476.815C903.4 475.947 902.886 475.169 902.216 474.543C898.034 470.636 892.474 468.589 887.246 466.381C883.363 464.653 879.803 462.468 876.183 460.251C874.735 459.389 873.284 458.529 871.832 457.672C871.091 457.235 870.351 456.798 869.588 456.347C865.414 453.908 861.203 451.535 856.998 449.15C847.591 443.809 838.308 438.275 829.062 432.661C823.332 429.194 817.556 425.875 811.662 422.697C806.171 419.709 800.758 416.582 795.334 413.474C794.089 412.761 792.844 412.049 791.599 411.336C782.742 406.264 773.892 401.179 765.048 396.085C763.913 395.432 762.778 394.779 761.609 394.106C760.561 393.502 759.514 392.898 758.435 392.275C757.516 391.745 756.596 391.215 755.649 390.67C754.568 390.03 753.501 389.365 752.444 388.685C750.995 387.753 749.28 387.213 747.603 387.604C744.002 388.445 740.958 390.499 737.713 392.492C736.15 393.432 734.586 394.37 733.021 395.307C732.165 395.821 731.308 396.336 730.425 396.866C725.23 399.956 719.983 402.955 714.742 405.967C705.913 411.049 697.1 416.159 688.306 421.302C679.877 426.23 671.422 431.106 662.933 435.93C657.933 438.777 652.956 441.66 647.997 444.578C646.867 445.243 645.737 445.907 644.572 446.592C642.363 447.892 640.156 449.197 637.951 450.506C636.957 451.091 635.964 451.676 634.94 452.278C633.613 453.064 633.613 453.064 632.26 453.865C631.769 454.122 631.39 454.32 631.073 454.472C629.53 455.216 628.057 456.38 628.061 458.094V458.094C628.081 467.732 628.097 477.371 628.107 487.009C628.112 491.965 628.12 496.92 628.131 501.876C628.142 506.656 628.148 511.435 628.151 516.215C628.153 518.041 628.157 519.868 628.162 521.694C628.17 524.246 628.171 526.797 628.17 529.349C628.174 530.11 628.178 530.87 628.181 531.654C628.181 531.846 628.181 532.031 628.18 532.21C628.171 536.29 624.057 538.214 620.533 536.158C619.594 535.611 618.665 535.012 617.723 534.347C612.129 530.532 606.261 527.295 600.334 524.032C592.275 519.557 584.255 515.041 576.33 510.334C568.379 505.619 560.361 501.021 552.346 496.417C540.618 489.67 536.087 487.063 533.947 485.666C532.281 484.579 531.486 482.635 531.444 480.646C531.419 479.467 531.408 478.287 531.406 477.107C531.403 476.403 531.4 475.699 531.397 474.973C531.388 472.583 531.387 470.193 531.386 467.803C531.381 466.084 531.376 464.364 531.37 462.645C531.356 457.894 531.349 453.144 531.342 448.394C531.334 443.277 531.32 438.16 531.307 433.043C531.281 422.994 531.261 412.945 531.243 402.896C531.222 391.152 531.195 379.408 531.167 367.665C531.118 346.648 531.074 325.631 531.032 304.614C530.992 284.328 530.949 264.042 530.904 243.756C530.901 242.514 530.898 241.272 530.895 239.993C530.884 234.999 530.873 230.004 530.861 225.01C530.624 119.997 530.624 119.997 530.549 73.4514C530.534 64.2945 530.516 55.1376 530.491 45.9807C530.475 39.9762 530.463 33.9717 530.453 27.9672C530.448 25.6515 530.442 23.3359 530.433 21.0203C530.422 17.9809 530.418 14.9416 530.415 11.9023C530.41 11.0359 530.405 10.1695 530.4 9.27687C530.401 7.78577 530.402 6.67925 530.422 5.81887Z" fill="#E27D01"/>
<path d="M504.236 535.922C504.648 536.032 505.05 536.188 505.435 536.371C507.283 537.252 507.482 537.367 509.764 538.682C510.702 539.217 511.641 539.753 512.607 540.305C513.606 540.885 514.606 541.465 515.635 542.063C516.678 542.66 517.721 543.258 518.796 543.874C520.962 545.117 523.127 546.362 525.289 547.61C528.255 549.319 531.227 551.015 534.203 552.706C543.014 557.713 551.789 562.774 560.513 567.931C568.252 572.499 576.044 576.975 583.832 581.459C591.467 585.858 599.082 590.291 606.687 594.743C615.55 599.927 624.463 605.016 633.411 610.053C650.534 619.702 667.515 629.598 684.484 639.513C695.316 645.837 706.183 652.1 717.052 658.361C758.174 682.052 758.174 682.052 772.752 690.579C782.273 696.147 791.793 701.706 801.426 707.078C807.418 710.431 813.343 713.895 819.269 717.364C828.35 722.679 837.462 727.937 846.603 733.149C859.349 740.416 872.066 747.732 884.767 755.076C887.644 756.737 890.523 758.393 893.404 760.046C900.384 764.059 907.313 768.102 914.104 772.405C916.839 774.138 918.388 777.486 916.867 780.343C916.336 781.341 915.693 782.319 914.912 783.387C914.366 784.139 913.82 784.891 913.257 785.666C912.669 786.461 912.081 787.256 911.475 788.075C910.871 788.899 910.267 789.724 909.645 790.574C907.847 793.02 906.039 795.458 904.224 797.892C903.745 798.536 903.265 799.18 902.771 799.844C897.238 807.24 891.407 814.353 885.4 821.365C882.823 824.379 880.335 827.46 877.852 830.553C874.49 834.689 870.948 838.474 867.124 842.183C865.306 843.997 863.608 845.895 861.948 847.834C860.131 849.957 857.33 851.125 854.675 850.254C852.555 849.559 850.596 848.604 848.416 847.368C846.839 846.48 846.839 846.48 845.23 845.574C844.116 844.936 843.002 844.299 841.855 843.642C840.698 842.987 839.541 842.332 838.35 841.657C831.385 837.701 824.452 833.694 817.563 829.607C811.041 825.739 804.473 821.952 797.901 818.169C789.113 813.109 780.344 808.02 771.593 802.897C762.686 797.686 753.726 792.577 744.732 787.519C736.544 782.906 728.425 778.181 720.316 773.433C712.563 768.896 704.786 764.405 696.966 759.985C693.192 757.849 689.446 755.701 685.791 753.365C684.715 752.686 683.64 752.007 682.531 751.308C681.905 750.894 681.278 750.48 680.642 750.06C680.131 749.722 679.584 749.432 678.995 749.259C675.983 748.379 674.33 749.248 671.174 750.666C669.027 751.788 666.911 752.971 664.821 754.195C664.206 754.553 663.591 754.911 662.958 755.279C661.613 756.062 660.27 756.847 658.927 757.635C656.754 758.906 654.575 760.168 652.393 761.426C645.444 765.435 638.504 769.462 631.579 773.513C619.905 780.341 608.199 787.109 596.448 793.803C588.066 798.579 579.717 803.406 571.396 808.287C562.898 813.271 554.338 818.128 545.729 822.917C538.304 827.048 530.989 831.255 523.797 835.778C518.014 839.351 512.036 842.602 506.111 845.929C498.614 850.146 491.168 854.441 483.745 858.786C475.068 863.864 466.372 868.9 457.629 873.865C448.92 878.812 440.252 883.819 431.639 888.931C430.939 889.345 430.238 889.76 429.517 890.187C428.899 890.554 428.28 890.921 427.643 891.299V891.299C425.412 892.567 425.569 895.857 428.012 896.643C463.373 908.028 511.41 904.866 546.948 900.558C548.194 900.408 549.439 900.259 550.722 900.105C569.448 897.767 587.592 894.081 605.826 889.21C606.957 888.911 606.957 888.911 608.112 888.605C610.154 888.062 612.194 887.507 614.233 886.951C620.427 885.615 624.052 885.788 629.522 889.048C630.579 889.669 631.637 890.289 632.726 890.929C633.852 891.608 634.979 892.287 636.139 892.986C637.332 893.692 638.526 894.396 639.72 895.1C642.174 896.546 644.624 898 647.07 899.46C652.344 902.603 657.654 905.684 662.96 908.771C664.991 909.956 667.022 911.142 669.052 912.328C686.155 922.304 703.328 932.151 720.572 941.88C723.567 943.569 726.013 947.704 723.228 949.72C723.109 949.806 722.982 949.895 722.847 949.99C722.502 950.231 722.135 950.442 721.756 950.623C717.917 952.454 714.066 954.249 710.187 955.997C709.229 956.437 708.271 956.877 707.285 957.33C664.6 976.821 619.027 989.283 572.679 996.293C571.661 996.448 570.644 996.603 569.595 996.763C566.157 997.255 562.717 997.683 559.268 998.09C558.537 998.179 557.806 998.269 557.052 998.361C540.01 1000.39 522.987 1000.5 505.853 1000.47C502.718 1000.46 499.583 1000.47 496.448 1000.49C476.096 1000.61 456.275 999.821 436.07 997.063C435.263 996.956 434.457 996.848 433.626 996.738C429.356 996.159 425.108 995.489 420.862 994.753C419.607 994.539 418.352 994.324 417.059 994.103C374.34 986.583 332.791 974.168 293.365 955.997C292.332 955.523 291.298 955.05 290.234 954.562C255.739 938.653 223.61 918.921 193.779 895.424C192.922 894.755 192.064 894.085 191.18 893.395C174.13 879.943 158.337 865.184 142.96 849.867C142.101 849.012 141.242 848.158 140.356 847.278C135.366 842.274 130.607 837.147 126.02 831.772C125.021 830.624 124.021 829.477 123.02 828.331C111.422 814.943 100.675 801.021 90.4725 786.539C89.5748 785.272 88.6604 784.016 87.7244 782.777C86.5741 781.205 85.6802 779.967 85.2239 778.391C84.8126 776.971 85.2215 775.425 86.2094 774.325C87.5077 772.88 89.0395 772.052 91.0495 770.878C91.6185 770.542 92.1876 770.205 92.7739 769.859C94.9499 768.58 97.1384 767.323 99.3269 766.066C101.35 764.891 103.372 763.716 105.395 762.541C114.219 757.424 123.067 752.348 131.927 747.293C132.841 746.772 133.755 746.25 134.696 745.713C136.465 744.705 138.235 743.699 140.006 742.696C144.251 740.283 148.456 737.828 152.613 735.266C153.41 734.78 154.207 734.293 155.029 733.792C156.519 732.878 158.001 731.952 159.475 731.012C161.649 729.684 163.452 728.672 165.697 728.198C167.048 727.913 168.469 728.202 169.585 729.015C171.878 730.682 173.27 732.925 174.914 735.459C175.815 736.78 176.719 738.099 177.625 739.417C178.088 740.094 178.55 740.77 179.027 741.468C188.556 755.106 199.6 768.338 211.697 779.749L214.312 782.492L215.339 783.519C215.889 784.218 216.44 784.916 217.007 785.636C219.505 788.726 222.132 791.079 225.144 793.645C227.574 795.765 229.925 797.954 232.27 800.166C239.624 807.079 247.321 813.38 255.378 819.452C256.001 819.922 256.623 820.392 257.264 820.876C265.43 827.015 273.721 832.966 282.324 838.481C285.001 840.2 287.539 842.026 290.064 843.959C293.253 846.3 296.131 848.131 299.649 849.543C300.9 850.045 302.282 850.154 303.581 849.795C307.446 848.726 310.536 846.753 313.95 844.404C316.847 842.465 319.878 840.787 322.913 839.074C325.43 837.649 327.927 836.193 330.42 834.727C335.231 831.901 340.058 829.107 344.89 826.318C352.216 822.08 359.527 817.817 366.835 813.549C384.391 803.297 402.005 793.145 419.663 783.07C434.926 774.355 450.166 765.598 465.298 756.658C475.224 750.804 485.224 745.078 495.21 739.327C501.932 735.456 508.649 731.578 515.367 727.7C520.978 724.462 526.591 721.227 532.206 717.998C537.751 714.807 543.291 711.608 548.827 708.402C551.026 707.13 553.226 705.863 555.429 704.598C558.617 702.766 561.799 700.923 564.979 699.077C565.945 698.525 566.911 697.974 567.906 697.406C568.783 696.893 569.661 696.38 570.565 695.852C571.336 695.407 572.107 694.962 572.902 694.504V694.504C575.672 692.766 573.779 688.967 570.959 687.311C554.846 677.851 538.703 668.445 522.507 659.128C519.216 657.233 515.927 655.334 512.64 653.435C500.401 646.363 488.145 639.323 475.868 632.318C467.655 627.63 459.454 622.921 451.278 618.169C447.156 615.775 443.024 613.402 438.877 611.053C429.653 605.826 420.548 600.471 411.566 594.863C408.457 592.922 406.762 588.56 409.906 586.677C410.475 586.337 411.143 585.972 411.947 585.515C412.929 584.95 413.911 584.385 414.923 583.803C415.994 583.2 417.064 582.596 418.167 581.974C420.425 580.68 422.683 579.386 424.941 578.092C426.686 577.097 426.686 577.097 428.467 576.083C432.886 573.553 437.28 570.981 441.673 568.405C450.091 563.47 458.531 558.583 467.052 553.827C474.128 549.871 481.134 545.794 488.144 541.722C489.26 541.081 489.26 541.081 490.399 540.428C491.791 539.612 493.168 538.768 494.524 537.894C498.337 535.494 500.173 534.839 504.236 535.922Z" fill="#E27D01"/>
</svg>
