<svg width="1002" height="1001" viewBox="0 0 1002 1001" fill="none" xmlns="http://www.w3.org/2000/svg">
<path d="M468.372 0.612195C470.236 0.74755 472.286 1.55988 472.45 3.42133C472.523 4.25468 472.427 5.16347 472.433 6.22942C472.445 7.64298 472.445 7.64298 472.456 9.0851C472.46 10.1325 472.463 11.1799 472.466 12.259C472.478 13.914 472.478 13.914 472.489 15.6024C472.512 19.3305 472.528 23.0585 472.544 26.7866C472.559 29.447 472.574 32.1074 472.589 34.7679C472.725 59.068 472.791 83.3686 472.844 107.669C472.851 110.921 472.858 114.174 472.866 117.426C472.868 118.234 472.87 119.043 472.871 119.876C472.902 132.97 472.969 146.064 473.049 159.158C473.131 172.595 473.178 186.032 473.192 199.469C473.201 207.016 473.225 214.562 473.289 222.109C473.349 229.209 473.363 236.308 473.345 243.408C473.346 246.016 473.362 248.624 473.396 251.232C473.44 254.79 473.426 258.343 473.399 261.901C473.425 262.937 473.451 263.973 473.478 265.04C473.35 271.477 473.343 271.86 470.777 274.397C470.434 274.736 470.059 275.043 469.655 275.308C467.51 276.72 465.356 277.929 463.041 279.084C462.009 279.697 460.976 280.309 459.913 280.94C458.539 281.697 458.539 281.697 457.138 282.469C456.098 283.045 455.059 283.621 453.989 284.215C452.91 284.809 451.832 285.402 450.721 286.014C439.017 292.515 427.451 299.202 416.015 306.137C411.351 308.965 410.915 315.547 415.58 318.374C416.142 318.714 416.711 319.049 417.291 319.38C418.368 319.999 419.446 320.618 420.557 321.255C421.702 321.907 422.848 322.559 424.028 323.23C425.223 323.915 426.419 324.6 427.614 325.286C433.253 328.518 438.905 331.731 444.557 334.941C462.865 345.345 467.634 348.055 470.076 349.961C471.597 351.148 472.368 353.037 472.422 354.966C472.441 355.647 472.453 356.328 472.46 357.009C472.479 358.643 472.479 358.643 472.5 360.31C472.509 361.516 472.518 362.722 472.528 363.964C472.541 365.226 472.554 366.488 472.568 367.789C472.683 379.439 472.745 391.091 472.791 402.742C472.825 411.356 472.886 419.969 472.983 428.583C473.049 434.637 473.084 440.691 473.095 446.746C473.103 450.363 473.125 453.979 473.181 457.595C473.242 461.634 473.239 465.671 473.23 469.71C473.257 470.905 473.285 472.101 473.314 473.332C473.229 480.702 473.223 481.228 471.025 483.818C470.665 484.242 470.258 484.627 469.81 484.957C467.965 486.312 466.127 487.445 464.068 488.522C463.214 489.034 462.36 489.546 461.481 490.074C460.704 490.472 459.927 490.871 459.127 491.281C454.01 493.993 448.989 496.839 443.984 499.751C442.289 500.736 440.594 501.721 438.899 502.707C437.546 503.493 437.546 503.493 436.165 504.295C433.07 506.09 429.969 507.876 426.867 509.661C424.616 510.956 422.365 512.251 420.114 513.547C418.994 514.191 417.873 514.836 416.719 515.5C411.099 518.74 405.495 522.005 399.922 525.325C398.358 526.256 398.358 526.256 396.763 527.206C394.787 528.386 392.814 529.57 390.843 530.759C389.968 531.281 389.093 531.804 388.191 532.343C387.426 532.804 386.66 533.265 385.871 533.741L382.962 535.748L379.558 537.693C379.432 537.765 379.488 537.754 379.353 537.807V537.807C377.975 538.359 376.16 537.972 375.484 536.65C374.529 534.782 374.52 533.526 374.564 530.586C374.58 528.986 374.58 528.986 374.596 527.354C374.618 526.185 374.64 525.015 374.662 523.81C374.677 522.578 374.691 521.345 374.706 520.076C374.738 517.395 374.774 514.715 374.814 512.034C374.876 507.793 374.915 503.552 374.948 499.311C374.96 497.858 374.972 496.405 374.983 494.953C374.992 493.861 374.992 493.861 375.001 492.748C375.082 482.875 375.182 473.002 375.333 463.129C375.435 456.468 375.503 449.808 375.534 443.146C375.552 439.622 375.587 436.1 375.663 432.576C375.739 428.643 375.759 424.713 375.765 420.779C375.801 419.616 375.838 418.453 375.875 417.254C375.9 411.841 375.902 411.287 373.601 407.721C373.027 406.831 372.274 406.062 371.378 405.496C369.482 404.299 367.572 403.268 365.509 402.283C364.576 401.723 363.644 401.163 362.683 400.586C361.899 400.151 361.115 399.716 360.307 399.267C359.397 398.758 358.488 398.249 357.55 397.725C356.598 397.196 355.646 396.668 354.665 396.123C345.938 391.234 337.254 386.278 328.613 381.236C327.599 380.646 326.586 380.056 325.541 379.448C324.094 378.602 324.094 378.602 322.618 377.739C321.703 377.206 320.789 376.673 319.847 376.123C316.992 374.404 314.226 372.57 311.491 370.671C311.058 370.37 310.601 370.101 310.105 369.922C308.164 369.224 307.168 369.602 304.936 370.457C302.913 371.468 300.917 372.536 298.941 373.637C297.175 374.618 297.175 374.618 295.373 375.62C294.454 376.136 294.454 376.136 293.516 376.662C291.695 377.684 289.869 378.698 288.042 379.71C280.917 383.678 273.942 387.837 267.013 392.142C262.377 394.985 257.646 397.645 252.898 400.294C234.554 410.597 216.365 421.168 198.2 431.781C187.365 438.108 176.495 444.372 165.623 450.634C162.204 452.604 158.787 454.577 155.369 456.551C153.101 457.861 150.832 459.171 148.564 460.481C146.907 461.438 146.907 461.438 145.217 462.414C137.251 467.011 129.263 471.565 121.267 476.107C115.076 479.64 109.002 483.324 102.994 487.158V487.158C100.747 488.455 98.6176 490.651 98.683 493.245C100.169 552.183 108.47 610.894 134.292 664.595C134.741 665.546 135.191 666.497 135.654 667.477C135.963 668.104 136.272 668.732 136.586 669.371C136.773 669.75 136.933 670.143 137.045 670.551C137.563 672.448 137.587 673.807 137.179 675.462C136.855 676.773 136.081 677.956 134.986 678.747C134.457 679.13 133.913 679.422 132.687 680.081C131.439 680.771 131.439 680.771 130.166 681.475C129.249 681.96 128.333 682.445 127.389 682.945C125.414 684.03 123.439 685.117 121.466 686.205C120.415 686.778 119.365 687.35 118.283 687.94C112.649 691.044 107.094 694.283 101.53 697.51C99.2684 698.817 97.0066 700.123 94.7445 701.428C92.6002 702.668 90.456 703.907 88.3119 705.146C87.3597 705.696 86.4075 706.247 85.4264 706.814C83.6598 707.835 81.8935 708.857 80.1275 709.879C78.5139 710.812 76.8993 711.744 75.2834 712.673C71.8261 714.664 68.3941 716.678 65.0156 718.801C63.9159 719.483 62.8161 720.164 61.683 720.867C60.967 721.325 60.251 721.784 59.5218 722.251C59.1054 722.517 58.6645 722.747 58.2047 722.929C56.8577 723.462 56.436 723.544 55.4674 723.273C54.7765 723.08 54.1243 722.757 53.559 722.315C51.687 720.853 51.0153 719.445 49.9046 716.993C49.2472 715.558 49.2472 715.558 48.5766 714.094C48.1162 713.047 47.6559 712 47.1815 710.921C46.692 709.826 46.2025 708.731 45.6982 707.603C15.806 639.937 -0.384363 566.76 1.04621 492.628C1.05911 491.731 1.07202 490.834 1.08531 489.91C2.6269 398.154 30.1402 306.823 80.0986 229.805C80.8212 228.677 81.5438 227.55 82.2883 226.388C97.753 202.706 115.436 180.682 134.712 160.016C137.276 157.265 139.781 154.465 142.275 151.651C149.168 143.972 156.425 136.636 164.28 129.939C166.597 127.943 168.836 125.873 171.086 123.803C176.927 118.528 183.11 113.738 189.327 108.923C191.531 107.2 193.69 105.427 195.854 103.655C254.216 57.0781 324.53 25.7064 397.335 10.1007C398.518 9.84573 399.7 9.5908 400.919 9.32815C415.222 6.31197 429.601 4.27375 444.112 2.59324C445.266 2.45843 445.266 2.45843 446.444 2.32091C461.548 0.581471 464.023 0.296383 468.372 0.612195ZM371.348 117.568C370.365 117.952 369.381 118.335 368.368 118.73C367.27 119.154 366.173 119.578 365.042 120.015C363.862 120.481 362.682 120.948 361.466 121.429C360.258 121.902 359.05 122.375 357.805 122.862C354.208 124.277 350.618 125.706 347.029 127.139C346.087 127.513 345.144 127.886 344.174 128.271C304.576 144.04 266.256 168.209 235.011 197.281L228.963 202.598C223.83 206.705 224.088 206.713 221.597 209.216C221.095 209.717 220.594 210.219 220.078 210.736C219.018 211.798 217.961 212.863 216.907 213.931C215.318 215.538 213.721 217.138 212.122 218.736C206.574 224.304 201.199 229.97 196.111 235.965C195.219 236.978 194.327 237.992 193.408 239.037C175.786 259.42 160.912 282.251 147.858 305.777C147.404 306.584 146.951 307.392 146.484 308.223C139.931 319.958 134.388 332.026 129.186 344.405C128.885 345.117 128.585 345.828 128.276 346.562C127.423 348.591 126.58 350.624 125.741 352.659C125.253 353.839 124.766 355.018 124.264 356.234V356.234C123.07 359.07 126.147 361.135 128.905 359.773C130.596 358.938 132.255 358.032 133.934 357.054C135.549 356.117 135.549 356.117 137.197 355.161C138.917 354.156 138.917 354.156 140.671 353.132C142.485 352.078 144.3 351.025 146.114 349.972C147.337 349.262 148.561 348.552 149.783 347.841C155.156 344.72 160.552 341.639 165.953 338.566C173.529 334.248 181.074 329.877 188.603 325.476C207.094 314.669 225.658 303.99 244.263 293.379C253.591 288.057 262.882 282.676 272.152 277.253C282.949 270.939 293.786 264.696 304.624 258.453C308.043 256.482 311.461 254.509 314.878 252.536C317.146 251.226 319.415 249.915 321.683 248.605C322.792 247.965 323.9 247.325 325.042 246.666C331.117 243.16 337.204 239.675 343.305 236.214C351.181 231.739 359.023 227.212 366.792 222.554C367.582 222.089 368.372 221.623 369.186 221.143C369.905 220.708 370.623 220.272 371.364 219.823C371.995 219.444 372.627 219.066 373.278 218.676C374.903 217.558 375.054 217.454 375.595 215.178C375.716 214.664 375.784 214.139 375.798 213.612C375.875 210.802 375.903 208.01 375.892 205.196C375.892 203.784 375.892 203.784 375.892 202.343C375.892 199.226 375.884 196.11 375.876 192.994C375.874 190.834 375.872 188.675 375.871 186.516C375.867 180.83 375.857 175.143 375.846 169.457C375.835 163.656 375.831 157.855 375.825 152.054C375.816 142.123 375.801 132.192 375.783 122.261C375.778 119.542 374.277 116.36 371.763 117.396C371.633 117.45 371.495 117.507 371.348 117.568Z" fill="black"/>
<path d="M530.701 5.31887C530.77 2.35864 533.676 0.651119 536.637 0.648291C565.976 0.620275 597.251 6.60148 625.317 14.5156C626.623 14.8839 627.976 15.5365 628.348 16.8414C628.732 18.1869 628.47 19.6975 628.474 21.3167C628.48 22.4524 628.486 23.5881 628.491 24.7582C628.492 26.0215 628.493 27.2848 628.494 28.5864C628.502 30.5812 628.502 30.5812 628.51 32.6163C628.524 36.3247 628.531 40.033 628.538 43.7413C628.546 47.7339 628.56 51.7264 628.574 55.719C628.596 62.642 628.615 69.5651 628.631 76.4882C628.654 86.4979 628.683 96.5075 628.713 106.517C628.762 122.756 628.807 138.994 628.848 155.232C628.889 171.01 628.931 186.788 628.976 202.567C628.979 203.538 628.982 204.51 628.985 205.512C628.999 210.387 629.013 215.262 629.027 220.137C629.138 258.547 629.243 296.956 629.343 335.365C629.35 338.16 632.342 339.931 634.795 338.593V338.593C636.309 337.768 636.309 337.768 637.853 336.926C651.894 329.256 665.829 321.396 679.589 313.232C684.065 310.577 688.568 307.97 693.075 305.368C698.445 302.267 703.81 299.157 709.161 296.024C720.397 289.445 731.669 282.943 743.013 276.554C756.361 269.032 769.592 261.32 782.779 253.522C783.735 252.957 784.69 252.392 785.674 251.81C789.693 249.434 793.709 247.055 797.718 244.663C799.376 243.68 799.376 243.68 801.067 242.678C801.983 242.131 802.898 241.584 803.842 241.021V241.021C805.584 240.107 806.807 237.816 805.69 236.196C803.937 233.652 801.969 231.338 799.783 229.01C799.263 228.452 798.743 227.893 798.206 227.317C793.097 221.883 787.85 216.585 782.587 211.3C781.368 210.074 781.368 210.074 780.125 208.824C775.209 203.921 770.17 199.238 764.877 194.746C763.976 193.978 763.075 193.21 762.146 192.42C755.994 187.337 749.677 182.568 743.177 177.939C739.581 175.355 738.632 174.672 737.929 173.588C737.346 172.688 737.116 171.608 737.079 170.537C737.045 169.58 737.033 168.622 737.034 167.664C737.032 166.247 737.032 166.247 737.03 164.802C737.033 163.763 737.037 162.724 737.041 161.654C737.041 160.562 737.041 159.47 737.04 158.345C737.041 154.723 737.049 151.101 737.057 147.479C737.059 144.973 737.061 142.467 737.062 139.961C737.066 133.355 737.076 126.749 737.087 120.143C737.097 113.406 737.102 106.669 737.107 99.9324C737.117 88.2627 737.132 76.593 737.15 64.9233C737.154 62.1338 739.014 58.7957 741.631 59.7612V59.7612C741.94 59.8752 742.27 60.03 742.556 60.1926C743.124 60.5155 743.695 60.8399 744.28 61.1722C745.1 61.6361 745.92 62.0999 746.766 62.5778C747.66 63.1026 748.555 63.6273 749.477 64.1679C750.417 64.7125 751.356 65.2571 752.323 65.8182C776.423 80.0179 798.951 96.4149 820.524 114.18C822.214 115.565 823.915 116.936 825.622 118.3C830.592 122.29 835.285 126.347 839.675 130.973C841.629 132.902 843.632 134.686 845.71 136.479C850.114 140.304 854.256 144.347 858.367 148.482C859.053 149.164 859.739 149.846 860.446 150.549C864.493 154.604 868.345 158.772 872.086 163.109C874.193 165.538 876.386 167.883 878.579 170.234C883.532 175.661 888.057 181.351 892.547 187.162C894.872 190.165 897.297 193.068 899.754 195.965C906.381 204.024 912.066 212.767 917.849 221.439C918.328 222.15 918.807 222.862 919.3 223.596C925.326 232.565 930.96 241.767 936.428 251.085C937.462 252.844 938.506 254.596 939.55 256.349C940.184 257.441 940.817 258.533 941.47 259.657C942.038 260.627 942.606 261.597 943.191 262.596C944.376 265.217 944.926 267.636 945.285 270.299C945.487 271.796 944.712 273.245 943.392 273.977V273.977C940.073 275.817 936.757 277.663 933.441 279.509C932.311 280.134 931.182 280.759 930.018 281.404C924.622 284.412 919.305 287.476 914.115 290.83C909.587 293.755 904.968 296.392 900.217 298.937C887.004 306.016 873.9 313.365 861.102 321.172C857.003 323.672 852.845 326.016 848.59 328.239C847.779 328.664 847.341 328.893 847.022 329.224C846.136 330.143 846.968 331.655 848.165 332.098V332.098C851.379 333.455 854.261 335.081 857.264 336.857C857.85 337.202 858.437 337.548 859.041 337.904C860.957 339.033 862.87 340.167 864.783 341.301C866.126 342.093 867.469 342.885 868.813 343.676C871.54 345.283 874.266 346.891 876.991 348.5C882.492 351.745 888.01 354.962 893.53 358.176C895.527 359.341 897.524 360.505 899.521 361.669C901.524 362.836 903.526 364.003 905.529 365.17C929.394 379.079 929.394 379.079 938.895 384.677C958.728 396.368 958.728 396.368 978.682 407.848C980.379 408.813 982.071 409.786 983.763 410.76C985.576 411.793 987.404 412.802 989.249 413.776C989.996 414.189 990.742 414.602 991.511 415.027C991.748 415.151 991.984 415.275 992.222 415.4C992.973 415.793 993.677 416.289 994.188 416.966C998.028 422.045 997.811 430.914 998.505 436.844C998.699 438.429 998.699 438.429 998.896 440.046C999.271 443.148 999.637 446.25 999.981 449.356C1000.07 450.031 1000.16 450.705 1000.25 451.4C1001.27 460.042 1001.2 468.705 1001.22 477.393C1001.22 478.243 1001.22 479.094 1001.23 479.971C1001.24 484.489 1001.25 489.008 1001.25 493.527C1001.26 497.201 1001.27 500.875 1001.3 504.549C1001.43 526.085 1001.05 547.091 997.928 568.448C997.721 569.953 997.515 571.459 997.309 572.964C996.796 576.539 996.228 580.096 995.618 583.655C995.402 584.92 995.187 586.184 994.965 587.487C987.29 631.145 975.279 679.985 952.414 718.939C950.788 721.709 947.556 723.303 944.543 722.19C943.046 721.637 941.604 720.92 940.038 719.968C939.174 719.449 938.309 718.929 937.418 718.394C936.487 717.826 935.556 717.257 934.596 716.671C932.556 715.445 930.514 714.221 928.472 712.998C927.404 712.357 926.337 711.715 925.236 711.055C919.812 707.823 914.339 704.675 908.865 701.528C907.752 700.887 906.638 700.246 905.491 699.585C903.219 698.277 900.947 696.97 898.674 695.663C893.043 692.424 887.415 689.18 881.787 685.936C880.684 685.3 879.58 684.663 878.443 684.008C870.965 679.694 863.508 675.346 856.057 670.985C847.026 665.702 837.944 660.52 828.828 655.386C817.471 648.987 806.2 642.444 794.951 635.858C792.883 634.648 790.815 633.439 788.747 632.229C787.201 631.325 787.201 631.325 785.624 630.402C778.34 626.152 771.011 621.986 763.658 617.856C745.345 607.557 741.789 605.557 739.123 603.194C737.799 602.02 736.942 600.354 736.914 598.584C736.908 598.164 736.909 597.641 736.911 596.884C736.906 595.493 736.906 595.493 736.902 594.074C736.913 592.544 736.913 592.544 736.924 590.984C736.924 589.912 736.924 588.84 736.923 587.736C736.925 584.181 736.941 580.626 736.957 577.07C736.961 574.61 736.964 572.15 736.966 569.69C736.974 563.206 736.994 556.721 737.016 550.237C737.037 543.624 737.047 537.011 737.057 530.398C737.074 520.493 737.098 510.588 737.128 500.682C737.143 495.811 741.608 491.86 746.002 493.964C746.96 494.422 747.936 494.958 748.972 495.592C750.596 496.571 750.596 496.571 752.253 497.571C753.109 498.097 753.109 498.097 753.983 498.633C757.069 500.526 760.175 502.385 763.277 504.25C764.239 504.83 764.239 504.83 765.221 505.422C771.911 509.449 778.685 513.323 785.474 517.179C786.677 517.864 787.879 518.548 789.081 519.233C790.878 520.255 792.674 521.278 794.471 522.301C810.442 531.392 826.329 540.63 842.194 549.906C849.644 554.258 857.13 558.544 864.631 562.807C872.558 567.325 880.408 571.969 888.239 576.649C889.143 577.188 890.047 577.727 890.979 578.281C891.783 578.762 892.587 579.243 893.415 579.738V579.738C894.951 580.778 896.515 579.484 896.834 577.656C899.629 561.642 902.277 545.673 903.476 529.435C903.533 528.686 903.591 527.938 903.651 527.166C904.357 517.804 904.759 508.445 904.534 499.057C904.464 495.82 904.638 492.68 904.919 489.456C905.193 484.939 905.443 480.565 903.977 476.315C903.678 475.447 903.165 474.669 902.494 474.043C898.313 470.136 892.752 468.089 887.525 465.881C883.641 464.153 880.081 461.968 876.462 459.751C875.013 458.889 873.563 458.029 872.11 457.172C871.37 456.735 870.629 456.298 869.866 455.847C865.692 453.408 861.481 451.035 857.276 448.65C847.869 443.309 838.586 437.775 829.34 432.161C823.611 428.694 817.834 425.375 811.94 422.197C806.449 419.209 801.036 416.082 795.613 412.974C794.368 412.261 793.122 411.549 791.877 410.836C783.02 405.764 774.171 400.679 765.326 395.585C764.191 394.932 763.056 394.279 761.887 393.606C760.84 393.002 759.792 392.398 758.713 391.775C757.794 391.245 756.875 390.715 755.928 390.17C754.846 389.53 753.779 388.865 752.722 388.185C751.273 387.253 749.558 386.713 747.881 387.104C744.28 387.945 741.236 389.999 737.992 391.992C736.428 392.932 734.864 393.87 733.299 394.807C732.443 395.321 731.586 395.836 730.704 396.366C725.509 399.456 720.261 402.455 715.02 405.467C706.191 410.549 697.378 415.659 688.584 420.802C680.155 425.73 671.7 430.606 663.212 435.43C658.211 438.277 653.235 441.16 648.276 444.078C647.145 444.743 646.015 445.407 644.851 446.092C642.641 447.392 640.434 448.697 638.23 450.006C637.236 450.591 636.242 451.176 635.218 451.778C633.891 452.564 633.891 452.564 632.538 453.365C632.047 453.622 631.668 453.82 631.351 453.972C629.808 454.716 628.335 455.88 628.339 457.594V457.594C628.36 467.232 628.375 476.871 628.385 486.509C628.391 491.465 628.398 496.42 628.409 501.376C628.421 506.156 628.427 510.935 628.429 515.715C628.431 517.541 628.435 519.368 628.441 521.194C628.448 523.746 628.449 526.297 628.449 528.849C628.452 529.61 628.456 530.37 628.46 531.154C628.459 531.346 628.459 531.531 628.459 531.71C628.449 535.79 624.336 537.714 620.811 535.658C619.872 535.111 618.943 534.512 618.001 533.847C612.407 530.032 606.539 526.795 600.612 523.532C592.554 519.057 584.533 514.541 576.608 509.834C568.658 505.119 560.64 500.521 552.625 495.917C540.897 489.17 536.365 486.563 534.225 485.166C532.559 484.079 531.764 482.135 531.722 480.146C531.697 478.967 531.687 477.787 531.684 476.607C531.681 475.903 531.678 475.199 531.675 474.473C531.667 472.083 531.665 469.693 531.664 467.303C531.659 465.584 531.654 463.864 531.649 462.145C531.635 457.394 531.627 452.644 531.621 447.894C531.612 442.777 531.598 437.66 531.585 432.543C531.56 422.494 531.54 412.445 531.521 402.396C531.5 390.652 531.473 378.908 531.445 367.165C531.396 346.148 531.352 325.131 531.31 304.114C531.27 283.828 531.228 263.542 531.182 243.256C531.179 242.014 531.176 240.772 531.174 239.493C531.162 234.499 531.151 229.504 531.14 224.51C530.903 119.497 530.903 119.497 530.828 72.9514C530.813 63.7945 530.795 54.6376 530.769 45.4807C530.753 39.4762 530.741 33.4717 530.731 27.4672C530.726 25.1515 530.72 22.8359 530.712 20.5203C530.701 17.4809 530.696 14.4416 530.693 11.4023C530.688 10.5359 530.684 9.66952 530.679 8.77687C530.68 7.28577 530.68 6.17925 530.701 5.31887Z" fill="black"/>
<path d="M504.514 535.922C504.927 536.032 505.329 536.188 505.714 536.371C507.561 537.252 507.761 537.367 510.043 538.682C510.981 539.217 511.919 539.753 512.885 540.305C513.885 540.885 514.884 541.465 515.914 542.063C516.957 542.66 518 543.258 519.074 543.874C521.24 545.117 523.405 546.362 525.568 547.61C528.533 549.319 531.506 551.015 534.482 552.706C543.292 557.713 552.068 562.774 560.791 567.931C568.53 572.499 576.322 576.975 584.11 581.459C591.746 585.858 599.361 590.291 606.965 594.743C615.828 599.927 624.741 605.016 633.689 610.053C650.812 619.702 667.793 629.598 684.763 639.513C695.594 645.837 706.461 652.1 717.33 658.361C758.453 682.052 758.453 682.052 773.031 690.579C782.552 696.147 792.071 701.706 801.705 707.078C807.696 710.431 813.622 713.895 819.547 717.364C828.628 722.679 837.741 727.937 846.882 733.149C859.627 740.416 872.344 747.732 885.045 755.076C887.922 756.737 890.802 758.393 893.683 760.046C900.662 764.059 907.591 768.102 914.383 772.405C917.117 774.138 918.666 777.486 917.145 780.343C916.614 781.341 915.971 782.319 915.19 783.387C914.644 784.139 914.098 784.891 913.535 785.666C912.947 786.461 912.359 787.256 911.753 788.075C911.149 788.899 910.545 789.724 909.923 790.574C908.125 793.02 906.317 795.458 904.503 797.892C904.023 798.536 903.543 799.18 903.049 799.844C897.516 807.24 891.685 814.353 885.678 821.365C883.101 824.379 880.613 827.46 878.13 830.553C874.768 834.689 871.226 838.474 867.403 842.183C865.585 843.997 863.887 845.895 862.227 847.834C860.409 849.957 857.608 851.125 854.953 850.254C852.833 849.559 850.874 848.604 848.694 847.368C847.117 846.48 847.117 846.48 845.508 845.574C844.395 844.936 843.281 844.299 842.133 843.642C840.977 842.987 839.82 842.332 838.628 841.657C831.663 837.701 824.73 833.694 817.842 829.607C811.32 825.739 804.752 821.952 798.18 818.169C789.392 813.109 780.622 808.02 771.872 802.897C762.965 797.686 754.005 792.577 745.01 787.519C736.823 782.906 728.703 778.181 720.594 773.433C712.841 768.896 705.064 764.405 697.244 759.985C693.47 757.849 689.724 755.701 686.07 753.365C684.994 752.686 683.918 752.007 682.809 751.308C682.183 750.894 681.557 750.48 680.921 750.06C680.409 749.722 679.862 749.432 679.274 749.259C676.261 748.379 674.609 749.248 671.452 750.666C669.305 751.788 667.19 752.971 665.1 754.195C664.485 754.553 663.87 754.911 663.236 755.279C661.891 756.062 660.548 756.847 659.206 757.635C657.032 758.906 654.853 760.168 652.671 761.426C645.722 765.435 638.783 769.462 631.858 773.513C620.184 780.341 608.478 787.109 596.726 793.803C588.344 798.579 579.995 803.406 571.674 808.287C563.177 813.271 554.616 818.128 546.008 822.917C538.582 827.048 531.268 831.255 524.075 835.778C518.292 839.351 512.315 842.602 506.389 845.929C498.893 850.146 491.446 854.441 484.023 858.786C475.347 863.864 466.65 868.9 457.908 873.865C449.199 878.812 440.531 883.819 431.917 888.931C431.217 889.345 430.517 889.76 429.795 890.187C429.177 890.554 428.559 890.921 427.922 891.299V891.299C425.69 892.567 425.847 895.857 428.29 896.643C463.651 908.028 511.689 904.866 547.227 900.558C548.472 900.408 549.717 900.259 551 900.105C569.727 897.767 587.871 894.081 606.104 889.21C607.236 888.911 607.236 888.911 608.39 888.605C610.433 888.062 612.472 887.507 614.511 886.951C620.705 885.615 624.33 885.788 629.8 889.048C630.858 889.669 631.915 890.289 633.005 890.929C634.131 891.608 635.257 892.287 636.417 892.986C637.61 893.692 638.804 894.396 639.999 895.1C642.453 896.546 644.902 898 647.349 899.46C652.622 902.603 657.932 905.684 663.239 908.771C665.269 909.956 667.3 911.142 669.33 912.328C686.433 922.304 703.607 932.151 720.851 941.88C723.845 943.569 726.292 947.704 723.506 949.72C723.388 949.806 723.261 949.895 723.125 949.99C722.78 950.231 722.414 950.442 722.034 950.623C718.195 952.454 714.344 954.249 710.465 955.997C709.507 956.437 708.55 956.877 707.563 957.33C664.879 976.821 619.306 989.283 572.957 996.293C571.94 996.448 570.922 996.603 569.873 996.763C566.436 997.255 562.995 997.683 559.547 998.09C558.815 998.179 558.084 998.269 557.33 998.361C540.288 1000.39 523.266 1000.5 506.131 1000.47C502.996 1000.46 499.861 1000.47 496.727 1000.49C476.374 1000.61 456.553 999.821 436.348 997.063C435.542 996.956 434.735 996.848 433.905 996.738C429.634 996.159 425.387 995.489 421.141 994.753C419.886 994.539 418.631 994.324 417.338 994.103C374.618 986.583 333.069 974.168 293.643 955.997C292.61 955.523 291.577 955.05 290.512 954.562C256.017 938.653 223.889 918.921 194.057 895.424C193.2 894.755 192.342 894.085 191.459 893.395C174.408 879.943 158.615 865.184 143.238 849.867C142.379 849.012 141.52 848.158 140.635 847.278C135.644 842.274 130.885 837.147 126.298 831.772C125.299 830.624 124.299 829.477 123.298 828.331C111.7 814.943 100.953 801.021 90.7508 786.539C89.8531 785.272 88.9387 784.016 88.0027 782.777C86.8524 781.205 85.9585 779.967 85.5022 778.391C85.0909 776.971 85.4998 775.425 86.4878 774.325C87.786 772.88 89.3178 772.052 91.3278 770.878C91.8969 770.542 92.4659 770.205 93.0523 769.859C95.2282 768.58 97.4167 767.323 99.6052 766.066C101.628 764.891 103.651 763.716 105.673 762.541C114.497 757.424 123.346 752.348 132.205 747.293C133.119 746.772 134.033 746.25 134.975 745.713C136.743 744.705 138.513 743.699 140.284 742.696C144.529 740.283 148.734 737.828 152.891 735.266C153.688 734.78 154.486 734.293 155.307 733.792C156.797 732.878 158.28 731.952 159.753 731.012C161.927 729.684 163.731 728.672 165.975 728.198C167.326 727.913 168.747 728.202 169.864 729.015C172.156 730.682 173.548 732.925 175.193 735.459C176.093 736.78 176.997 738.099 177.904 739.417C178.366 740.094 178.829 740.77 179.305 741.468C188.834 755.106 199.879 768.338 211.976 779.749L214.591 782.492L215.617 783.519C216.168 784.218 216.718 784.916 217.286 785.636C219.784 788.726 222.411 791.079 225.423 793.645C227.852 795.765 230.203 797.954 232.549 800.166C239.902 807.079 247.599 813.38 255.657 819.452C256.279 819.922 256.901 820.392 257.542 820.876C265.709 827.015 274 832.966 282.602 838.481C285.279 840.2 287.817 842.026 290.342 843.959C293.531 846.3 296.41 848.131 299.928 849.543C301.179 850.045 302.56 850.154 303.859 849.795C307.725 848.726 310.814 846.753 314.229 844.404C317.126 842.465 320.156 840.787 323.191 839.074C325.708 837.649 328.205 836.193 330.699 834.727C335.509 831.901 340.337 829.107 345.168 826.318C352.494 822.08 359.805 817.817 367.113 813.549C384.67 803.297 402.283 793.145 419.941 783.07C435.205 774.355 450.444 765.598 465.577 756.658C475.503 750.804 485.503 745.078 495.488 739.327C502.21 735.456 508.928 731.578 515.646 727.7C521.257 724.462 526.869 721.227 532.485 717.998C538.03 714.807 543.569 711.608 549.105 708.402C551.304 707.13 553.505 705.863 555.707 704.598C558.896 702.766 562.077 700.923 565.257 699.077C566.223 698.525 567.189 697.974 568.184 697.406C569.062 696.893 569.939 696.38 570.844 695.852C571.615 695.407 572.386 694.962 573.18 694.504V694.504C575.95 692.766 574.057 688.967 571.237 687.311C555.124 677.851 538.981 668.445 522.785 659.128C519.494 657.233 516.206 655.334 512.918 653.435C500.679 646.363 488.423 639.323 476.147 632.318C467.933 627.63 459.732 622.921 451.556 618.169C447.435 615.775 443.303 613.402 439.155 611.053C429.932 605.826 420.826 600.471 411.844 594.863C408.736 592.922 407.04 588.56 410.184 586.677C410.753 586.337 411.422 585.972 412.226 585.515C413.208 584.95 414.19 584.385 415.201 583.803C416.272 583.2 417.343 582.596 418.446 581.974C420.704 580.68 422.962 579.386 425.219 578.092C426.964 577.097 426.964 577.097 428.745 576.083C433.165 573.553 437.559 570.981 441.951 568.405C450.369 563.47 458.809 558.583 467.33 553.827C474.407 549.871 481.413 545.794 488.423 541.722C489.539 541.081 489.539 541.081 490.677 540.428C492.069 539.612 493.446 538.768 494.803 537.894C498.615 535.494 500.452 534.839 504.514 535.922Z" fill="black"/>
</svg>
